<?xml version="1.0" encoding="UTF-8" standalone="no"?>
<!-- This artwork by R. Eddy Martin is licensed under a Creative Commons Attribution-ShareAlike 4.0 (CC BY-SA) International License.
http://creativecommons.org/licenses/by-sa/4.0/
Based on original pixel artwork by Laurent Jacques.
(http://wiki.lazarus.freepascal.org/Wile64)
Original license unknown, but assumedly covered
under the same license as the Lazarus IDE. -->

<svg
   xmlns:dc="http://purl.org/dc/elements/1.1/"
   xmlns:cc="http://creativecommons.org/ns#"
   xmlns:rdf="http://www.w3.org/1999/02/22-rdf-syntax-ns#"
   xmlns:svg="http://www.w3.org/2000/svg"
   xmlns="http://www.w3.org/2000/svg"
   xmlns:xlink="http://www.w3.org/1999/xlink"
   xmlns:sodipodi="http://sodipodi.sourceforge.net/DTD/sodipodi-0.dtd"
   xmlns:inkscape="http://www.inkscape.org/namespaces/inkscape"
   version="1.1"
   id="svg2"
   viewBox="0 0 256 256"
   height="256"
   width="256"
   sodipodi:docname="win_objectinspector 256.svg"
   inkscape:export-filename="win_objectinspector 256.png"
   inkscape:export-xdpi="96"
   inkscape:export-ydpi="96"
   inkscape:version="0.92.4 (5da689c313, 2019-01-14)">
  <sodipodi:namedview
     pagecolor="#ffffff"
     bordercolor="#666666"
     borderopacity="1"
     objecttolerance="10"
     gridtolerance="10"
     guidetolerance="10"
     inkscape:pageopacity="0"
     inkscape:pageshadow="2"
     inkscape:window-width="1920"
     inkscape:window-height="1137"
     id="namedview37"
     showgrid="true"
     inkscape:zoom="3.671875"
     inkscape:cx="126.5"
     inkscape:cy="128"
     inkscape:window-x="-8"
     inkscape:window-y="-8"
     inkscape:window-maximized="1"
     inkscape:current-layer="svg2"
     inkscape:snap-bbox="true"
     inkscape:bbox-paths="true"
     inkscape:bbox-nodes="true"
     inkscape:snap-bbox-edge-midpoints="true"
     inkscape:snap-bbox-midpoints="true"
     inkscape:object-paths="true"
     inkscape:snap-intersection-paths="true"
     inkscape:snap-smooth-nodes="true"
     inkscape:snap-midpoints="true"
     inkscape:snap-page="true"
     showguides="true"
     inkscape:guide-bbox="true"
     inkscape:snap-global="true">
    <inkscape:grid
       type="xygrid"
       id="grid975"
       spacingx="0.5"
       spacingy="0.5"
       empspacing="2" />
  </sodipodi:namedview>
  <defs
     id="defs4">
    <radialGradient
       gradientUnits="userSpaceOnUse"
       gradientTransform="matrix(0.34848379,0.81710767,-1.0552069,0.45002947,220.78172,-391.94908)"
       r="136.11285"
       fy="252.45506"
       fx="492.90915"
       cy="252.45506"
       cx="492.90915"
       id="radialGradient32960"
       xlink:href="#linearGradient33100-1" />
    <radialGradient
       r="136.11285"
       fy="256.02982"
       fx="493.7803"
       cy="256.02982"
       cx="493.7803"
       gradientTransform="matrix(0.0648979,-1.040629,1.1571364,0.07216377,-206.23785,620.60717)"
       gradientUnits="userSpaceOnUse"
       id="radialGradient33090"
       xlink:href="#linearGradient32954-1" />
    <linearGradient
       id="linearGradient33100-1">
      <stop
         id="stop33102-7"
         offset="0"
         style="stop-color:#658155;stop-opacity:1" />
      <stop
         id="stop33104-9"
         offset="1"
         style="stop-color:#ffffff;stop-opacity:1" />
    </linearGradient>
    <linearGradient
       id="linearGradient32954-1">
      <stop
         style="stop-color:#9bb48d;stop-opacity:1"
         offset="0"
         id="stop32956-0" />
      <stop
         style="stop-color:#ffffff;stop-opacity:1"
         offset="1"
         id="stop32958-2" />
    </linearGradient>
  </defs>
  <metadata
     id="metadata7">
    <rdf:RDF>
      <cc:Work
         rdf:about="">
        <dc:format>image/svg+xml</dc:format>
        <dc:type
           rdf:resource="http://purl.org/dc/dcmitype/StillImage" />
        <dc:title />
      </cc:Work>
    </rdf:RDF>
  </metadata>
  <path
     style="opacity:0.45;fill:#000000;fill-opacity:1;stroke:none;stroke-width:5.67029238;stroke-linecap:round;stroke-linejoin:round;stroke-miterlimit:4;stroke-dasharray:none;stroke-opacity:1"
     d="m 135.87478,16.951094 c 5.06656,0.06821 9.60955,1.098765 13.91785,2.449113 5.61585,1.76018 12.01581,4.925475 11.63802,14.564932 -1.03538,26.418685 18.7185,35.237804 37.78085,41.231441 9.07035,2.851922 21.3108,-7.185208 30.04003,-4.406862 10.44253,3.323658 12.70964,17.347295 16.30526,27.01887 2.14657,5.773942 -4.12464,13.016962 -9.04539,15.170432 -21.40595,9.36787 -24.2886,30.28767 -15.0789,50.27073 3.71899,8.06937 11.97604,12.80011 15.01426,20.55051 2.85419,7.28095 -4.87534,18.69636 -9.18281,24.71464 -4.07678,4.80915 -13.09725,13.85413 -20.06278,9.57336 -22.68553,-13.94172 -40.59339,-8.41553 -57.37453,6.8746 -5.97742,5.44632 -5.6792,12.59965 -8.67868,22.93241 -1.35931,4.68261 -5.67421,6.81961 -10.06271,7.44479 -9.20786,1.31174 -19.51254,0.9136 -29.24871,-3.45629 -5.281518,-2.3705 -11.001114,-7.4786 -10.707514,-12.23356 1.380011,-22.35 -15.814008,-39.16901 -35.999188,-42.60394 -7.864161,-1.33825 -17.658659,7.017 -25.068783,4.82534 -8.296383,-2.45381 -11.268329,-11.91534 -13.797158,-19.02649 -1.912938,-5.37924 -4.857205,-15.43898 1.493514,-18.62779 20.461023,-10.27391 28.747564,-33.2426 24.328155,-50.02732 C 38.467611,100.4492 29.467302,95.234842 27.253701,93.004611 23.155667,88.875788 22.194796,83.947656 24.054222,78.865502 c 3.107256,-8.492713 8.229344,-15.98103 15.156643,-22.016684 4.412824,-3.844814 11.584132,-2.580841 15.923963,0.624931 20.292186,14.989523 56.503312,0.205386 61.003102,-24.873976 1.76753,-9.851242 3.2038,-13.04808 9.98788,-14.591825 3.47974,-0.791832 6.70904,-1.097793 9.74897,-1.056854 z"
     id="path32877-6"
     inkscape:connector-curvature="0" />
  <path
     style="opacity:1;fill:#4d6241;fill-opacity:0.95722127;stroke:none;stroke-width:5.67029238;stroke-linecap:round;stroke-linejoin:round;stroke-miterlimit:4;stroke-dasharray:none;stroke-opacity:1"
     d="M 124.49478,2.2712448e-5 C 90.924514,-0.02832875 117.36686,25.454014 85.36122,41.509916 48.207416,60.148442 47.160412,12.892113 18.518535,52.141714 c -29.463836,40.375973 16.130677,26.939089 11.427607,63.710096 -5.558336,43.45793 -45.46122,18.41519 -23.3013614,63.2592 21.9205724,44.35978 27.7991834,-2.22098 61.8099854,21.42656 35.373544,24.59503 -9.151423,44.71042 41.108034,50.21784 49.5289,5.42737 15.87073,-24.70869 50.74469,-40.98305 38.9415,-18.17254 37.81386,30.13947 66.86799,-11.16022 C 255.85053,157.8513 212.43897,176.77591 215.27799,134.6125 217.97708,94.527457 259.5362,118.24545 238.28983,72.365857 219.00701,30.726389 208.06437,72.798192 176.82949,51.035813 143.50381,27.816703 184.68711,5.7692535 134.39406,0.57749338 130.61502,0.18737727 127.33972,0.00242044 124.49478,2.2712448e-5 Z"
     id="path33060"
     inkscape:connector-curvature="0" />
  <path
     style="opacity:1;fill:#ffffff;fill-opacity:1;stroke:none;stroke-width:5.67029238;stroke-linecap:round;stroke-linejoin:round;stroke-miterlimit:4;stroke-dasharray:none;stroke-opacity:1"
     d="m 128.9247,5.8918048 c 5.06656,0.068206 9.60955,1.0987649 13.91784,2.4491126 5.61585,1.7601806 12.01581,4.9254756 11.63803,14.5649316 -1.03539,26.418686 25.69088,40.077448 36.96258,41.231441 12.9669,1.327546 20.68256,-6.028006 29.41179,-3.24966 10.44254,3.323658 12.70965,16.768699 16.30526,26.440273 2.14658,5.773937 -2.67813,12.438361 -7.59889,14.591827 -21.40595,9.36787 -26.0244,35.20578 -16.8147,55.18884 3.71899,8.06938 11.97604,11.3536 15.01426,19.10401 2.85419,7.28095 -3.13954,15.22475 -7.44701,21.24303 -4.07678,4.80915 -13.09725,13.85413 -20.06277,9.57336 -22.68554,-13.94172 -40.5934,-8.41553 -57.37453,6.8746 -5.97742,5.44632 -5.67921,12.59965 -8.67869,22.93241 -1.3593,4.68261 -5.67421,6.81961 -10.06271,7.44479 -9.20786,1.31174 -18.35534,0.9136 -28.091518,-3.45629 -5.281517,-2.3705 -6.661601,-8.34651 -6.368002,-13.10147 1.380012,-22.35 -19.285611,-36.8546 -39.470791,-40.28953 -7.864161,-1.33825 -16.21216,5.5705 -23.622284,3.37884 C 18.286182,188.35851 11.842632,178.89698 9.3138026,171.78583 7.4008646,166.40659 4.4565981,156.34685 10.807318,153.15804 31.268341,142.88413 39.554882,119.91544 35.135472,103.13072 31.517518,89.389913 22.517209,84.175553 20.303607,81.945321 16.205574,77.816498 15.244702,72.888366 17.104129,67.806213 20.211384,59.3135 25.333473,51.825182 32.260772,45.789529 c 4.412824,-3.844815 11.584131,-2.580842 15.923963,0.624931 20.292186,14.989523 56.503315,0.205386 61.003105,-24.873977 1.76753,-9.851242 3.2038,-13.0480797 9.98788,-14.5918249 3.47974,-0.791832 6.70904,-1.0977929 9.74898,-1.0568533 z"
     id="path32877"
     inkscape:connector-curvature="0" />
  <path
     style="opacity:1;fill:url(#radialGradient32960);fill-opacity:1.0;stroke:none;stroke-width:5.67029238;stroke-linecap:round;stroke-linejoin:round;stroke-miterlimit:4;stroke-dasharray:none;stroke-opacity:1"
     d="m 229.72653,80.482329 -17.53139,12.764484 c -1.36442,0.993403 -2.78891,1.873732 -4.26696,2.65637 -1.47805,0.78263 -3.01061,1.466686 -4.58813,2.066239 -1.57753,0.599552 -3.20056,1.1158 -4.86342,1.559962 -1.66285,0.444162 -3.36511,0.816326 -5.09915,1.132796 -3.46808,0.63292 -7.06356,1.03913 -10.73147,1.32739 -3.6679,0.28825 -7.40885,0.45984 -11.16339,0.62493 -3.75452,0.1651 -7.52402,0.32351 -11.25198,0.58697 -3.72796,0.26345 -7.41383,0.63173 -11.00201,1.21506 -1.7941,0.29166 -3.56374,0.63735 -5.30166,1.05052 -1.73793,0.41317 -3.44421,0.89319 -5.11181,1.45554 -1.66761,0.56236 -3.2961,1.20677 -4.87924,1.94601 -1.58313,0.73923 -3.12101,1.57333 -4.60553,2.51714 -1.41272,0.89816 -2.73901,1.89883 -3.99325,2.98544 -1.25424,1.08661 -2.43642,2.25864 -3.55659,3.50122 -1.12016,1.24258 -2.17905,2.556 -3.18954,3.92206 -1.01049,1.36605 -1.97162,2.7846 -2.89685,4.24165 -1.85044,2.91408 -3.55567,5.97763 -5.21147,9.06075 -1.65581,3.08312 -3.26239,6.18717 -4.9188,9.17942 -1.6564,2.99225 -3.36239,5.87345 -5.21464,8.51493 -0.926118,1.32074 -1.888318,2.58112 -2.900008,3.76543 -1.0117,1.18431 -2.07262,2.29279 -3.19429,3.30819 -1.121664,1.01541 -2.305289,1.9373 -3.561332,2.7513 -1.256051,0.81401 -2.584754,1.51935 -3.999581,2.09947 -1.414835,0.58011 -2.915746,1.0358 -4.513772,1.34954 -1.598018,0.31373 -3.293532,0.48665 -5.099148,0.50153 -1.394867,0.0115 -2.864267,0.16232 -4.395108,0.43666 -1.530841,0.27433 -3.121933,0.67189 -4.758995,1.17393 -1.637062,0.50204 -3.320759,1.10901 -5.03428,1.80361 -1.71353,0.6946 -3.457574,1.47684 -5.217811,2.32887 -3.520482,1.70404 -7.104577,3.68823 -10.633378,5.81109 -2.689339,1.61786 -5.278086,3.3471 -7.850447,5.06435 14.683708,-4.79559 30.588481,4.00674 41.84372,13.80235 9.180624,7.99005 14.472962,19.37801 13.470111,31.60903 -0.375138,4.57532 3.663321,8.34355 8.078259,9.36611 8.56052,1.98274 20.67941,5.2466 25.65713,-2.31146 4.63802,-7.0423 1.64921,-16.06545 11.32318,-25.46728 13.33554,-12.96039 31.50884,-22.01734 51.43765,-13.96373 4.99805,2.01981 10.03283,7.17977 15.40978,5.57221 7.98124,-2.38617 12.93071,-10.59669 16.29101,-17.82092 2.4592,-5.28695 -1.30881,-10.71624 -5.55637,-14.28331 -14.97099,-12.57253 -17.18174,-36.2598 -9.01488,-54.10826 3.91544,-8.55709 11.4601,-14.7582 19.84286,-18.854042 4.5664,-2.231163 5.38313,-7.878102 3.1832,-12.69329 -0.47774,-1.045699 -0.95635,-2.330984 -1.43022,-3.550259 z"
     id="path33088"
     inkscape:connector-curvature="0" />
  <path
     style="opacity:1;fill:url(#radialGradient33090);fill-opacity:1.0;stroke:none;stroke-width:5.67029238;stroke-linecap:round;stroke-linejoin:round;stroke-miterlimit:4;stroke-dasharray:none;stroke-opacity:1"
     d="m 124.40211,10.089384 c -5.2348,-0.05111 -8.96367,3.920756 -9.64614,9.744228 -3.33032,28.417585 -41.859535,48.558658 -65.271645,32.40167 -3.876463,-2.675195 -8.57814,-6.051263 -13.451124,-3.013922 -6.104297,3.804823 -9.426464,10.143343 -13.11571,16.086919 -3.900432,6.283818 -3.260192,9.837382 3.599307,15.232584 9.766212,7.681423 15.205512,21.216837 14.264325,33.999607 -1.818771,24.7016 -7.751727,29.51436 -27.179113,43.39419 -5.0233114,3.58888 1.69626,15.13925 5.823755,21.36643 3.691717,5.56971 11.282076,7.14291 17.852559,4.4315 0.630707,-0.26027 1.276966,-0.33976 1.912776,-0.54741 2.572361,-1.71725 5.161108,-3.44649 7.850447,-5.06435 3.528801,-2.12286 7.112896,-4.10705 10.633378,-5.81109 1.760237,-0.85203 3.504281,-1.63427 5.217811,-2.32887 1.713521,-0.6946 3.397218,-1.30157 5.03428,-1.80361 1.637062,-0.50204 3.228154,-0.8996 4.758995,-1.17393 1.530841,-0.27434 3.000241,-0.42517 4.395108,-0.43666 1.805616,-0.0149 3.50113,-0.1878 5.099148,-0.50153 1.598026,-0.31374 3.098937,-0.76943 4.513772,-1.34954 1.414827,-0.58012 2.74353,-1.28546 3.999581,-2.09947 1.256043,-0.814 2.439668,-1.73589 3.561332,-2.7513 1.12167,-1.0154 2.18259,-2.12388 3.19429,-3.30819 1.01169,-1.18431 1.97389,-2.44469 2.900008,-3.76543 1.85225,-2.64148 3.55824,-5.52268 5.21464,-8.51493 1.65641,-2.99225 3.26299,-6.0963 4.9188,-9.17942 1.6558,-3.08312 3.36103,-6.14667 5.21147,-9.06075 0.92523,-1.45705 1.88636,-2.8756 2.89685,-4.24165 1.01049,-1.36606 2.06938,-2.67948 3.18954,-3.92206 1.12017,-1.24258 2.30235,-2.41461 3.55659,-3.50122 1.25424,-1.08661 2.58053,-2.08728 3.99325,-2.98544 1.48452,-0.94381 3.0224,-1.77791 4.60553,-2.51714 1.58314,-0.73924 3.21163,-1.38365 4.87924,-1.94601 1.6676,-0.56235 3.37388,-1.04237 5.11181,-1.45554 1.73792,-0.41317 3.50756,-0.75886 5.30166,-1.05052 3.58818,-0.58333 7.27405,-0.95161 11.00201,-1.21506 3.72796,-0.26346 7.49746,-0.42187 11.25198,-0.58697 3.75454,-0.16509 7.49549,-0.33668 11.16339,-0.62493 3.66791,-0.28826 7.26339,-0.69447 10.73147,-1.32739 1.73404,-0.31647 3.4363,-0.688634 5.09915,-1.132796 1.66286,-0.444162 3.28589,-0.96041 4.86342,-1.559962 1.57752,-0.599553 3.11008,-1.283609 4.58813,-2.066239 1.47805,-0.782638 2.90254,-1.662967 4.26696,-2.65637 l 17.53139,-12.764484 c -2.6352,-6.780325 -5.57173,-15.213702 -13.00814,-15.458829 -7.49543,-0.247062 -13.9331,5.675599 -25.27267,4.162538 -12.77343,-1.704377 -29.4344,-12.404939 -37.05941,-25.321711 -4.11101,-6.964059 -4.42268,-15.139049 -4.63875,-23.029236 -0.17444,-6.370047 -7.21762,-9.143403 -12.91004,-9.872384 -4.16,-0.532732 -8.25569,-0.832513 -12.43541,-0.873323 z"
     id="path32877-5-9"
     inkscape:connector-curvature="0" />
  <path
     style="fill:#000000;fill-opacity:1;fill-rule:evenodd;stroke:none;stroke-width:0.81004179px;stroke-linecap:butt;stroke-linejoin:miter;stroke-opacity:1"
     d="m 110.89177,141.50151 c 5.20903,0.25262 5.1113,3.00131 15.15212,3.18231 5.69307,0.10263 11.42162,-3.7125 16.88793,-2.56754 3.99548,0.83687 4.01696,3.50231 6.50926,4.12253 0.61007,0.15181 1.35598,0.20198 1.88045,-0.14465 0.56673,-0.37457 0.48677,-2.31395 0.94024,-1.80813 1.22761,1.36938 0.41959,3.7453 0.0723,5.56903 -0.3802,1.99668 -1.05533,4.04574 -2.3144,5.64137 -1.84021,2.33211 -4.96943,3.28294 -7.23252,5.20741 -2.49341,2.12034 -4.48835,4.77837 -6.94321,6.94322 -1.53355,1.35237 -3.48352,2.23614 -4.84578,3.7609 -0.77133,0.86333 -1.89551,1.81093 -1.80813,2.96534 0.0594,0.78488 1.95648,1.15389 1.51882,1.80812 -0.57656,0.86188 -2.01969,-1.36566 -2.96533,-0.94023 -0.6496,0.29226 -1.0523,1.26475 -0.8679,1.95279 0.60572,2.26016 2.65332,-0.29939 2.82068,0.65092 0.18439,1.04712 -1.62184,1.87422 -2.67602,1.73581 -1.16898,-0.1535 -1.57937,-1.76068 -2.36994,-2.62564 -0.57423,-0.62827 -0.77879,0.26736 -0.77879,0.26736 -0.0761,0.77871 1.33541,1.69408 0.7576,2.22165 -0.44244,0.40397 -1.17645,-0.35435 -1.64154,-0.73203 -0.51094,-0.41491 -1.10901,-0.94351 -1.1572,-1.59993 -0.0634,-0.86367 1.19471,-1.43888 1.19881,-2.30487 0.005,-0.98908 -0.72231,-1.87622 -1.34422,-2.64533 -0.45919,-0.56787 -1.09368,-0.97554 -1.70221,-1.37931 -1.85124,-1.22836 -4.19781,-1.68798 -5.87877,-3.14069 -2.32615,-2.01029 -3.27039,-5.28093 -5.47915,-7.41954 -2.49661,-2.4173 -6.87538,-2.6785 -8.58189,-5.91932 -1.010128,-1.91833 -1.836738,-5.34701 -0.867898,-9.94471 0.27593,-1.30947 1.822428,3.17818 3.363118,2.82069 1.77707,-0.41235 5.2056,-5.8302 8.35356,-5.67753 z"
     id="path32029"
     inkscape:connector-curvature="0" />
  <path
     style="fill:#000000;fill-opacity:1;fill-rule:evenodd;stroke:none;stroke-width:0.81004179px;stroke-linecap:butt;stroke-linejoin:miter;stroke-opacity:1"
     d="m 57.41478,68.669369 c -5.240355,1.026987 -11.631398,1.847859 -12.847214,3.043537 0,0 -1.595612,4.194105 -1.973343,5.306179 -0.242348,0.713493 2.326886,-0.0081 3.046924,-0.229858 1.434867,-0.442671 1.743679,-1.802561 3.188186,-2.212702 1.45618,-0.413453 3.16954,-0.990705 4.282553,0.03524 2.153513,1.985032 3.1257,6.060879 5.643618,8.338635 2.993809,2.708261 5.478205,5.113744 9.325201,6.569163 3.846996,1.455419 13.240666,2.00095 15.426954,3.045336 1.702821,1.113224 3.588395,2.671761 3.525625,4.705209 -0.223061,7.226662 0.574863,15.314702 -0.04812,17.797182 -0.676369,2.6951 -4.435262,10.49797 -7.36473,15.54742 -2.025696,3.49164 -3.743073,4.11641 -6.205957,8.7466 -0.590601,1.11032 -3.610825,1.75817 -3.610825,1.75817 -1.227708,0.45758 1.346791,1.00719 1.478139,2.3108 0.283815,2.81675 -0.935533,4.88656 -1.442886,7.55595 -0.548836,2.88762 -0.800864,2.16011 -0.758507,9.23049 0.0057,0.89085 1.957069,-1.85792 4.823863,-1.43181 1.350639,0.20076 1.885445,-2.50151 1.722918,-4.09135 -0.205815,-2.0133 0.71948,-3.449 2.694783,-5.90897 0.69508,-0.86562 0.03734,-1.72167 0.686194,-2.62245 0.410221,-0.56949 1.16096,-0.82861 1.189068,-1.52991 0.02949,-0.73644 -1.500545,-0.20589 -1.406046,-0.93684 0.29074,-2.24887 0.244455,-3.88079 1.081487,-5.43952 2.790416,-5.19636 8.215306,-10.90888 10.842223,-17.38743 1.087675,-2.68243 1.590128,-6.82257 2.203832,-8.25453 0.613695,-1.43197 -0.454126,-10.8518 -1.024258,-16.161758 C 91.2489,90.439601 91.909452,84.057865 89.644701,78.450869 88.623133,75.921724 86.520872,74.237315 84.373775,72.555013 82.04092,70.727161 80.795027,70.53796 77.637598,69.366826 76.768245,69.044381 76.287667,68.894771 73.242367,68.578685 70.197066,68.262599 63.192722,67.688409 57.41478,68.669369 Z"
     id="path33094"
     inkscape:connector-curvature="0"
     sodipodi:nodetypes="ccscccszcccsscccccscccsccccccczc" />
  <path
     style="fill:#ffffff;fill-opacity:1;fill-rule:evenodd;stroke:none;stroke-width:0.81004179px;stroke-linecap:butt;stroke-linejoin:miter;stroke-opacity:1"
     d="m 72.07738,72.927742 c 0,0 -0.271501,1.370077 -0.138445,2.484152 0.247632,2.073413 1.972302,3.34778 3.488006,3.362584 1.067546,-0.01677 1.779852,-0.28101 2.5349,-1.035888 1.037806,-0.982669 4.060626,-2.046964 4.060626,-2.046964 2.163556,0.21684 1.70609,1.036083 2.712915,2.963334 0.571744,1.094423 1.455273,3.024639 0.409768,3.681575 -1.633514,1.026404 -4.662819,2.803304 -6.95655,5.114968 -0.781568,0.787677 -2.170912,0.752805 -3.271807,0.613866 -3.359713,-0.424016 -6.662129,-1.132341 -9.456319,-3.045441 -1.870297,-1.280538 -3.547249,-3.896843 -4.080686,-6.099849 -0.602096,-2.486545 -1.594219,-5.4205 0.0956,-5.657413 3.374359,-0.473089 5.144387,-0.441562 8.726992,-0.428674 z"
     id="path32831"
     inkscape:connector-curvature="0"
     sodipodi:nodetypes="cscccscssscscc" />
  <path
     style="fill:#000000;fill-opacity:1;fill-rule:evenodd;stroke:none;stroke-width:0.81004179px;stroke-linecap:butt;stroke-linejoin:miter;stroke-opacity:1"
     d="m 171.5317,71.015435 c -2.4801,0.465703 -2.77746,0.474534 -4.21064,0.965853 -1.43319,0.491318 -3.10588,1.163638 -4.29308,2.04502 -1.1872,0.881382 -4.82859,4.121165 -5.33369,6.114735 -1.37132,5.412431 0.0708,11.963498 -0.33803,17.999759 -0.36409,5.375978 -0.50779,11.083468 0.56319,16.364258 0.88839,4.38054 2.49236,7.51306 4.50016,11.50644 1.91241,3.80369 3.94612,6.2243 6.18832,11.55821 2.39541,5.69836 1.20252,8.59926 2.09618,11.40493 0.91752,2.88061 2.63386,5.62522 2.60902,8.84769 -0.0117,1.5249 1.07333,1.11643 0.81795,2.86457 -0.069,0.47226 -0.42949,1.65705 -0.76697,1.99453 -0.86775,0.86776 0.44637,2.48157 -0.10228,3.57929 -0.15241,0.30493 -1.20676,0.0649 -1.38051,0.35815 -0.24576,0.41484 0.52154,1.15405 0.30575,1.58524 -0.17257,0.34481 -1.30777,0.73178 -0.97139,0.92024 1.88271,1.05477 6.21913,5.13727 6.69958,4.34737 0.52096,-0.8565 0.55034,-3.51751 1.17625,-4.60324 0.21114,-0.36624 -1.26992,-1.09369 -1.2198,-2.01555 0.0289,-0.53171 0.83667,-1.09771 0.96474,-1.61456 0.60304,-2.43375 -2.2067,-2.69836 -2.40494,-5.31844 -0.0525,-0.69345 1.50193,0.27436 1.78996,-0.35863 0.22766,-0.50029 -0.62525,-1.47959 -0.81794,-1.99437 -0.97511,-2.60502 -1.19508,-5.67606 -0.86878,-8.43839 0.11454,-0.96967 1.16312,-2.03509 0.86972,-2.96638 -0.28469,-0.90368 -1.66705,0.0259 -2.09745,-0.81812 -0.62259,-1.22103 -0.8427,-3.18477 -1.22676,-4.50047 -1.5711,-5.38227 -5.43058,-9.49129 -7.518,-14.72836 -1.62622,-4.07999 -4.59748,-7.62192 -5.72884,-11.86585 -1.23264,-4.6239 -1.91994,-9.61932 -1.02204,-14.319702 0.38341,-2.007081 1.06621,-4.243825 2.65953,-5.523156 1.6862,-1.186757 4.78275,-0.869908 6.39241,-1.022524 3.08938,-0.292911 6.42026,-0.943464 9.20569,-2.046141 3.04434,-1.20518 5.52054,-3.094733 7.88927,-5.355178 2.20293,-2.102221 3.40469,-5.01377 5.65741,-7.062552 0.63203,-0.574806 1.61284,-1.634834 2.46674,-1.661679 1.12791,-0.03548 2.08468,0.495648 2.92307,1.251004 3.64185,3.281196 3.77096,2.920322 5.55932,4.236899 0.86851,0.639399 1.61572,0.786259 2.49069,0.155723 0.83002,-0.598151 -0.12512,-2.948415 -0.90407,-3.611734 -2.08285,-1.773691 -2.42371,-4.622859 -4.81835,-5.032578 -3.30022,-0.564656 -7.39115,-1.205027 -12.05058,-2.388886 -5.05308,-0.797561 -13.27071,-1.319124 -15.75081,-0.853421 z"
     id="path33098"
     inkscape:connector-curvature="0"
     sodipodi:nodetypes="zzzsccccccccccccsccccccccccscccscsccccccccz" />
  <path
     style="fill:#ffffff;fill-opacity:1;fill-rule:evenodd;stroke:none;stroke-width:0.81004179px;stroke-linecap:butt;stroke-linejoin:miter;stroke-opacity:1"
     d="m 173.31313,76.405219 c 2.7265,-0.363539 4.63687,-0.46869 6.3411,0.204098 1.3015,0.513802 2.60788,1.693627 2.86363,3.069297 0.36348,1.955109 0.091,3.472673 -1.89177,5.420872 -1.80557,1.774073 -4.56597,3.405286 -7.3641,4.039727 -3.09688,0.702185 -5.62257,0.589532 -6.98105,-0.04552 -1.32525,-0.61952 -1.54869,-1.771051 -2.87327,-2.902825 -1.54671,-1.321575 -4.40287,-2.888406 -3.97278,-4.355313 0.31145,-1.062252 0.11091,-1.83452 1.8083,-3.283324 0.7068,-0.683878 1.84646,-2.264002 2.55773,-1.584758 2.72185,2.599311 3.46518,4.136349 5.82905,4.142959 1.38088,0.0041 2.30733,-0.862338 3.01721,-2.046782 0.42197,-0.704055 -0.14767,-2.549946 0.66595,-2.658427 z"
     id="path32838"
     inkscape:connector-curvature="0"
     sodipodi:nodetypes="cccccccscccccc" />
  <path
     style="fill:#000000;fill-opacity:1;fill-rule:evenodd;stroke:none;stroke-width:0.81004179px;stroke-linecap:butt;stroke-linejoin:miter;stroke-opacity:1"
     d="m 123.5399,48.288119 c -0.0403,5.22016 0.43294,10.202516 -0.15192,18.250492 -0.0702,0.966598 0.30522,5.047362 0.39158,6.012648 0.32755,3.661251 0.0182,7.744364 1.27704,11.197993 0.28408,0.779398 -0.011,-3.486946 0.16796,-7.589524 0.17471,-4.004482 0.18183,-8.105246 0.25571,-10.61887 0.0179,-0.609629 -0.0696,-3.169151 0.42517,-3.525764 0.62585,-0.451087 3.01807,-0.02179 2.46784,-0.562549 -1.70131,-1.671991 -2.32615,-1.991399 -2.77469,-3.657128 -0.80392,-2.985547 -0.45707,-5.798595 -0.78315,-9.308757 -0.67508,-7.266974 -1.23634,-5.282153 -1.27554,-0.198541 z"
     id="path32843"
     inkscape:connector-curvature="0" />
  <path
     style="fill:#000000;fill-opacity:1;fill-rule:evenodd;stroke:none;stroke-width:0.81004179px;stroke-linecap:butt;stroke-linejoin:miter;stroke-opacity:1"
     d="m 67.604109,170.79063 c 0.616952,-2.08836 1.363673,-3.83569 2.483871,-5.76846 0.710326,-1.22558 0.737146,-1.55397 3.343002,-3.55998 0.58195,-0.448 0.31445,1.16366 0.401862,1.89286 0.114775,0.95748 1.13503,1.03797 1.428954,1.95642 0.460322,1.43839 2.006935,1.65252 2.755624,2.89301 0.27893,0.46215 -0.369662,2.49759 -0.664841,2.86091 -2.676063,3.29384 -2.48354,2.98163 -6.176091,7.46767 -0.478654,0.58151 -1.285172,-0.57355 -1.293078,-1.32667 -0.0065,-0.61745 1.06685,-0.86236 1.363584,-1.59115 0.594692,-1.46061 -2.902582,0.4559 -1.410647,-1.21123 1.046922,-1.16987 0.650334,-0.66751 1.509618,-1.62988 0,0 -0.04034,-0.53549 -0.52596,-1.25147 -0.315617,-0.46537 -1.089223,1.24833 -1.651068,1.2259 -0.828899,-0.0331 -1.799864,-1.16236 -1.56483,-1.95793 z"
     id="path32845"
     inkscape:connector-curvature="0" />
  <path
     style="fill:#000000;fill-opacity:1;fill-rule:evenodd;stroke:none;stroke-width:0.81004179px;stroke-linecap:butt;stroke-linejoin:miter;stroke-opacity:1"
     d="m 72.595602,179.72535 c 0.99734,-1.87215 2.294209,-3.17524 4.158698,-5.06275 0.477098,-0.48299 1.931455,-1.25196 2.603709,-1.15721 1.331085,0.18761 1.869098,1.36354 3.109977,1.88045 0.912439,0.38011 1.910929,-0.0859 2.278243,0.83174 0.32302,0.80699 -0.444843,1.18605 -1.012553,1.84429 -0.891799,1.03404 -1.906814,1.87842 -2.820678,2.89301 -1.039163,1.1537 -0.546317,2.09057 -2.67603,3.39928 -1.544596,0.94915 2.236549,-3.21833 1.735798,-4.55648 -0.112726,-0.30124 -0.159732,-0.26523 -0.470108,-0.18082 -1.7937,0.48782 -1.882513,2.4208 -3.869399,3.79708 -0.753355,0.52184 -0.591728,-2.01611 -0.325451,-2.89301 0.314839,-1.03679 1.321729,-1.14859 1.084873,-2.20592 -0.06869,-0.30673 -0.192563,-0.6311 -0.506276,-0.65093 -1.774105,-0.11207 -2.235634,2.87005 -3.290795,2.35058 -0.08652,-0.0426 -0.04536,-0.20419 -8e-6,-0.28931 z"
     id="path32847"
     inkscape:connector-curvature="0" />
  <path
     style="fill:#000000;fill-opacity:1;fill-rule:evenodd;stroke:none;stroke-width:0.81004179px;stroke-linecap:butt;stroke-linejoin:miter;stroke-opacity:1"
     d="m 79.647307,185.51137 c -0.825238,0.88162 0.910358,-2.25724 1.591157,-3.25463 0.682971,-1.00056 1.368266,-1.70469 2.459052,-2.67603 0.645401,-0.57473 -0.557211,1.6522 -1.012552,2.38673 -0.819762,1.3224 -1.231377,1.61425 -3.037657,3.54393 z"
     id="path32851"
     inkscape:connector-curvature="0" />
  <path
     style="fill:#000000;fill-opacity:1;fill-rule:evenodd;stroke:none;stroke-width:0.81004179px;stroke-linecap:butt;stroke-linejoin:miter;stroke-opacity:1"
     d="m 85.252505,181.78662 c -0.974262,1.66802 -1.714348,2.89132 -2.097433,4.23102 -0.277982,0.97216 -0.265313,1.80141 -1.139122,2.26016 -0.730123,0.38332 -0.993103,-0.74247 -0.669005,-1.50074 0.510594,-1.19462 0.941341,-2.24963 1.844295,-3.29079 0.825311,-0.95164 1.282636,-1.55258 2.079345,-2.47714 0.135382,-0.15711 0.906712,-0.80583 -0.01806,0.77749 z"
     id="path32853"
     inkscape:connector-curvature="0" />
  <path
     style="fill:#000000;fill-opacity:1;fill-rule:evenodd;stroke:none;stroke-width:0.81004179px;stroke-linecap:butt;stroke-linejoin:miter;stroke-opacity:1"
     d="m 83.607107,189.95936 c -0.450172,-0.33433 -0.362672,0.58555 -0.452027,1.13912 -0.06197,0.38377 -0.170279,0.60481 0.05427,0.92215 0.155681,0.22004 0.290853,0.97545 0.452027,0.75941 0.238695,-0.31996 0.441902,-0.74074 0.379715,-1.37417 -0.05233,-0.53273 0.279959,-0.91631 -0.433955,-1.44651 z"
     id="path32855"
     inkscape:connector-curvature="0" />
  <path
     style="fill:#000000;fill-opacity:1;fill-rule:evenodd;stroke:none;stroke-width:0.81004179px;stroke-linecap:butt;stroke-linejoin:miter;stroke-opacity:1"
     d="m 163.2831,184.3309 c 0.009,0.19919 0.30966,0.26542 0.49766,0.33177 0.14398,0.0508 0.35799,-0.0755 0.45618,0.0415 0.10706,0.12748 -0.0987,0.34136 -0.0415,0.49766 0.0807,0.22029 0.26501,0.52776 0.49767,0.49766 0.19045,-0.0246 0.27053,-0.30663 0.2903,-0.49766 0.0315,-0.30438 -0.074,-0.65453 -0.2903,-0.8709 -0.24729,-0.24729 -0.65103,-0.39317 -0.99533,-0.33177 -0.17429,0.0311 -0.42241,0.15491 -0.41473,0.33178 z"
     id="path32857"
     inkscape:connector-curvature="0" />
  <path
     style="fill:#000000;fill-opacity:1;fill-rule:evenodd;stroke:none;stroke-width:0.81004179px;stroke-linecap:butt;stroke-linejoin:miter;stroke-opacity:1"
     d="m 164.98836,183.39316 c 0.8718,0.8375 1.10706,1.33676 1.63653,2.1655 0.59089,0.92486 1.85091,2.15795 2.12057,1.83799 0.28354,-0.33642 -0.76284,-1.59604 -0.64934,-2.52038 0.0464,-0.37835 0.85329,-0.11707 0.91435,-0.49334 0.0772,-0.47594 -0.62456,-0.65555 -0.91435,-1.04091 -0.33935,-0.45126 -0.39314,-1.59313 -0.81826,-1.48311 -0.442,0.11439 -0.93125,0.17649 -1.13699,0.61113 -0.2176,0.45966 -1.51926,0.5708 -1.15251,0.92312 z"
     id="path32861"
     inkscape:connector-curvature="0" />
  <path
     style="fill:#000000;fill-opacity:1;fill-rule:evenodd;stroke:none;stroke-width:0.81004179px;stroke-linecap:butt;stroke-linejoin:miter;stroke-opacity:1"
     d="m 168.50526,180.83608 c -0.21767,0.12044 2.60415,3.81474 3.27306,3.83562 0.24791,0.008 0.69788,-1.5 0.51142,-1.38082 -0.15249,0.0975 -3.4624,-2.63301 -3.78448,-2.4548 z"
     id="path32863"
     inkscape:connector-curvature="0" />
  <path
     style="fill:#000000;fill-opacity:1;fill-rule:evenodd;stroke:none;stroke-width:0.81004179px;stroke-linecap:butt;stroke-linejoin:miter;stroke-opacity:1"
     d="m 166.17831,176.84704 c 0.78892,1.03627 1.47392,2.05677 2.73608,2.37808 2.0829,0.53026 4.92215,3.54903 5.19087,3.04293 0.14731,-0.27744 -1.42682,-1.83244 -2.04566,-2.81279 -0.36238,-0.5741 -0.96358,-0.82727 -0.53775,-1.35601 0.34517,-0.42858 0.61741,-0.1064 1.15144,0.0263 0.89552,0.22257 1.82749,0.82589 2.73608,0.66484 0.57293,-0.10155 0.84118,-0.66851 1.20183,-1.12512 0.40097,-0.50764 0.59347,-1.21398 0.43471,-1.84109 -0.27526,-1.08733 -1.10873,-1.38319 -1.99453,-2.07123 -1.10173,-0.85579 -1.94677,-1.2037 -3.1452,-1.91782 -0.45232,-0.26953 -0.94894,-0.84884 -1.43198,-0.63927 -0.58031,0.25178 0.11202,1.2689 -0.38356,1.6621 -0.85478,0.6782 -1.13744,0.73534 -2.83836,0.66481 -0.77828,-0.0322 -1.37164,0.20162 -1.73881,0.8886 -0.0738,0.13801 -0.17072,0.77142 -0.1534,0.92697 0.0598,0.53655 0.34285,0.86851 0.81824,1.50867 z"
     id="path32865"
     inkscape:connector-curvature="0" />
  <rect
     style="opacity:1;fill:#749acc;fill-opacity:1;stroke:none;stroke-width:17.03059387;stroke-linecap:butt;stroke-linejoin:round;stroke-miterlimit:4;stroke-dasharray:none;stroke-opacity:1;paint-order:normal"
     id="rect949"
     width="141"
     height="108"
     x="112"
     y="144" />
  <rect
     style="opacity:1;fill:#ffffff;fill-opacity:1;stroke:none;stroke-width:1.28837705;stroke-linecap:butt;stroke-linejoin:round;stroke-miterlimit:4;stroke-dasharray:none;stroke-opacity:1;paint-order:normal"
     id="rect951"
     width="61"
     height="83"
     x="118"
     y="163" />
  <rect
     y="163"
     x="186"
     height="83"
     width="61"
     id="rect891"
     style="opacity:1;fill:#ffffff;fill-opacity:1;stroke:none;stroke-width:1.28837705;stroke-linecap:butt;stroke-linejoin:round;stroke-miterlimit:4;stroke-dasharray:none;stroke-opacity:1;paint-order:normal" />
  <g
     id="g1003">
    <rect
       y="176"
       x="126"
       height="6"
       width="45"
       id="rect964"
       style="opacity:1;fill:#808080;fill-opacity:1;stroke:none;stroke-width:12.20955372;stroke-linecap:butt;stroke-linejoin:round;stroke-miterlimit:4;stroke-dasharray:none;stroke-opacity:1;paint-order:normal" />
    <rect
       style="opacity:1;fill:#808080;fill-opacity:1;stroke:none;stroke-width:12.20955372;stroke-linecap:butt;stroke-linejoin:round;stroke-miterlimit:4;stroke-dasharray:none;stroke-opacity:1;paint-order:normal"
       id="rect993"
       width="45"
       height="6"
       x="126"
       y="194" />
    <rect
       style="opacity:1;fill:#808080;fill-opacity:1;stroke:none;stroke-width:12.20955372;stroke-linecap:butt;stroke-linejoin:round;stroke-miterlimit:4;stroke-dasharray:none;stroke-opacity:1;paint-order:normal"
       id="rect995"
       width="45"
       height="6"
       x="126"
       y="210" />
    <rect
       y="226"
       x="126"
       height="6"
       width="45"
       id="rect997"
       style="opacity:1;fill:#808080;fill-opacity:1;stroke:none;stroke-width:12.20955372;stroke-linecap:butt;stroke-linejoin:round;stroke-miterlimit:4;stroke-dasharray:none;stroke-opacity:1;paint-order:normal" />
  </g>
  <g
     id="g1013"
     transform="matrix(0.95555555,0,0,1,74.600001,0)">
    <rect
       style="opacity:1;fill:#808080;fill-opacity:1;stroke:none;stroke-width:12.20955372;stroke-linecap:butt;stroke-linejoin:round;stroke-miterlimit:4;stroke-dasharray:none;stroke-opacity:1;paint-order:normal"
       id="rect1005"
       width="45"
       height="6"
       x="126"
       y="176" />
    <rect
       y="194"
       x="126"
       height="6"
       width="45"
       id="rect1007"
       style="opacity:1;fill:#808080;fill-opacity:1;stroke:none;stroke-width:12.20955372;stroke-linecap:butt;stroke-linejoin:round;stroke-miterlimit:4;stroke-dasharray:none;stroke-opacity:1;paint-order:normal" />
    <rect
       y="210"
       x="126"
       height="6"
       width="45"
       id="rect1009"
       style="opacity:1;fill:#808080;fill-opacity:1;stroke:none;stroke-width:12.20955372;stroke-linecap:butt;stroke-linejoin:round;stroke-miterlimit:4;stroke-dasharray:none;stroke-opacity:1;paint-order:normal" />
    <rect
       style="opacity:1;fill:#808080;fill-opacity:1;stroke:none;stroke-width:12.20955372;stroke-linecap:butt;stroke-linejoin:round;stroke-miterlimit:4;stroke-dasharray:none;stroke-opacity:1;paint-order:normal"
       id="rect1011"
       width="45"
       height="6"
       x="126"
       y="226" />
  </g>
</svg>
