<?xml version="1.0" encoding="UTF-8" standalone="no"?>
<svg
   xmlns:dc="http://purl.org/dc/elements/1.1/"
   xmlns:cc="http://creativecommons.org/ns#"
   xmlns:rdf="http://www.w3.org/1999/02/22-rdf-syntax-ns#"
   xmlns:svg="http://www.w3.org/2000/svg"
   xmlns="http://www.w3.org/2000/svg"
   xmlns:xlink="http://www.w3.org/1999/xlink"
   xmlns:sodipodi="http://sodipodi.sourceforge.net/DTD/sodipodi-0.dtd"
   xmlns:inkscape="http://www.inkscape.org/namespaces/inkscape"
   inkscape:export-ydpi="96"
   inkscape:export-xdpi="96"
   inkscape:export-filename="laz_paw_64-48.png"
   inkscape:version="1.0alpha2 (4ce689b, 2019-06-24)"
   sodipodi:docname="laz_paw_64-48.svg"
   width="48"
   height="48"
   viewBox="0 0 48 48"
   id="svg2"
   version="1.1">
  <sodipodi:namedview
     inkscape:document-rotation="0"
     inkscape:guide-bbox="true"
     showguides="true"
     inkscape:snap-page="true"
     inkscape:snap-center="true"
     inkscape:snap-object-midpoints="true"
     inkscape:snap-midpoints="true"
     inkscape:snap-smooth-nodes="true"
     inkscape:snap-intersection-paths="true"
     inkscape:object-paths="true"
     inkscape:snap-bbox-midpoints="true"
     inkscape:snap-bbox-edge-midpoints="true"
     inkscape:bbox-nodes="true"
     inkscape:bbox-paths="true"
     inkscape:snap-bbox="true"
     inkscape:snap-global="true"
     inkscape:current-layer="svg2"
     inkscape:window-maximized="1"
     inkscape:window-y="-8"
     inkscape:window-x="-8"
     inkscape:cy="25.333626"
     inkscape:cx="20.584144"
     inkscape:zoom="13.615604"
     showgrid="true"
     id="namedview37"
     inkscape:window-height="1137"
     inkscape:window-width="1920"
     inkscape:pageshadow="2"
     inkscape:pageopacity="0"
     guidetolerance="10"
     gridtolerance="10"
     objecttolerance="10"
     borderopacity="1"
     bordercolor="#666666"
     pagecolor="#ffffff">
    <inkscape:grid
       empspacing="2"
       spacingy="0.5"
       spacingx="0.5"
       id="grid931"
       type="xygrid" />
  </sodipodi:namedview>
  <defs
     id="defs4">
    <linearGradient
       inkscape:collect="always"
       id="linearGradient880">
      <stop
         style="stop-color:#e4e6f2;stop-opacity:1"
         offset="0"
         id="stop876" />
      <stop
         id="stop881"
         offset="0.3797344"
         style="stop-color:#667fb5;stop-opacity:1;" />
      <stop
         id="stop884"
         offset="0.46363637"
         style="stop-color:#5470ac;stop-opacity:1" />
      <stop
         style="stop-color:#47d2f9;stop-opacity:1"
         offset="1"
         id="stop878" />
    </linearGradient>
    <linearGradient
       gradientTransform="matrix(0.95614034,0,0,0.95614034,3.6140399,2.6140399)"
       inkscape:collect="always"
       xlink:href="#linearGradient880"
       id="linearGradient882"
       x1="128"
       y1="14"
       x2="128"
       y2="242"
       gradientUnits="userSpaceOnUse" />
    <filter
       height="1.036"
       y="-0.018"
       width="1.036"
       x="-0.018"
       id="filter965"
       style="color-interpolation-filters:sRGB"
       inkscape:collect="always">
      <feGaussianBlur
         id="feGaussianBlur967"
         stdDeviation="1.785"
         inkscape:collect="always" />
    </filter>
    <filter
       inkscape:collect="always"
       style="color-interpolation-filters:sRGB"
       id="filter923"
       x="-0.036"
       width="1.072"
       y="-0.036"
       height="1.072">
      <feGaussianBlur
         inkscape:collect="always"
         stdDeviation="3.27"
         id="feGaussianBlur925" />
    </filter>
  </defs>
  <metadata
     id="metadata7">
    <rdf:RDF>
      <cc:Work
         rdf:about="">
        <dc:format>image/svg+xml</dc:format>
        <dc:type
           rdf:resource="http://purl.org/dc/dcmitype/StillImage" />
        <dc:title />
      </cc:Work>
    </rdf:RDF>
  </metadata>
  <g
     id="g4611">
    <ellipse
       ry="22.461786"
       rx="22.441624"
       cy="23.461786"
       cx="23.44276"
       id="path917"
       style="opacity:1;fill:#20345e;fill-opacity:1;stroke:none;stroke-width:0.499999;stroke-linejoin:round;stroke-opacity:0.976471;stop-opacity:1" />
    <circle
       transform="matrix(0.18858508,0,0,0.1887545,-0.31895908,-0.3212815)"
       style="opacity:0.45;fill:#000000;fill-opacity:1;stroke:none;stroke-width:2.65013;stroke-linejoin:round;stroke-opacity:0.976471;filter:url(#filter965);stop-opacity:1"
       id="circle939"
       cx="128.31599"
       cy="132.716"
       r="119" />
    <ellipse
       ry="21.518013"
       rx="21.498699"
       cy="23.461786"
       cx="23.44276"
       id="circle921"
       style="opacity:1;fill:#3371b4;fill-opacity:1;stroke:none;stroke-width:0.478991;stroke-linejoin:round;stroke-opacity:0.976471;stop-opacity:1" />
    <circle
       transform="matrix(0.18858508,0,0,0.1887545,-0.31895908,-0.3212815)"
       style="opacity:1;fill:url(#linearGradient882);fill-opacity:1;stroke:none;stroke-width:2.4497;stroke-linejoin:round;stroke-opacity:0.976471;filter:url(#filter923);stop-opacity:1"
       id="circle919"
       cx="126"
       cy="125"
       r="109" />
    <path
       style="opacity:1;fill:#000000;stroke-width:1.0046;stop-opacity:1"
       d="m 21.476822,38.321959 c -1.830496,-0.249701 -3.11829,-1.215488 -3.890869,-2.918007 -0.648057,-1.428084 -0.38741,-2.407739 0.920452,-3.459577 1.012087,-0.813962 1.373876,-1.645805 1.373876,-3.158892 0,-0.681464 0.09069,-1.479235 0.201517,-1.772865 0.240763,-0.637811 1.001901,-1.468599 1.796461,-1.960865 0.727527,-0.450734 4.095489,-1.318637 5.125986,-1.320924 1.598945,-0.0036 3.084858,0.851381 4.055611,2.333451 0.722477,1.103013 1.447967,1.573 2.835914,1.837162 1.634527,0.311102 2.19635,0.675902 2.643627,1.716536 0.64782,1.507255 0.405471,3.37023 -0.591697,4.548692 -1.455617,1.720215 -7.629664,3.73999 -12.94127,4.233586 -0.312604,0.02903 -1.000932,-0.0061 -1.529608,-0.0783 z M 11.259694,30.379846 C 10.452981,30.019092 9.1056599,28.679439 8.6454721,27.780492 8.1130378,26.740451 7.1629974,22.990684 7.2226908,22.164859 c 0.051866,-0.717943 0.1101083,-0.806184 0.5319293,-0.806184 0.3592937,0 0.5574619,0.171663 0.8207576,0.710989 0.3291254,0.674175 0.3680917,0.696261 0.7526428,0.426674 0.8920825,-0.625402 1.7975745,-0.382545 4.2166915,1.130938 1.244158,0.778376 2.581823,1.715684 2.972592,2.082912 0.607456,0.570835 0.710031,0.784986 0.707368,1.476677 -0.01001,2.59935 -3.324715,4.37368 -5.964978,3.192981 z m 22.15528,-5.712491 c -0.527599,-0.203172 -1.19928,-0.620168 -1.492611,-0.926602 -0.815961,-0.852449 -0.714919,-1.791318 0.474646,-4.410283 1.384618,-3.048383 1.581848,-3.331767 2.489055,-3.576269 l 0.769789,-0.207472 -0.104238,-1.010877 c -0.0945,-0.916391 -0.0665,-1.020752 0.299522,-1.116551 0.518926,-0.135826 0.939925,0.251946 1.368405,1.260413 0.187048,0.440178 0.709661,1.570082 1.161392,2.510896 1.426871,2.971732 1.336161,4.971104 -0.297393,6.555206 -1.353571,1.312625 -2.873816,1.612711 -4.668567,0.921539 z M 16.001921,20.783503 c -2.33616,-0.89209 -3.294917,-3.728738 -2.209131,-6.536085 0.265498,-0.686449 0.403427,-1.470874 0.403493,-2.294714 1.25e-4,-1.666666 0.276587,-2.4461268 0.867599,-2.4461268 0.337647,0 0.48128,0.1315196 0.569527,0.5214928 0.399425,1.765098 0.322569,1.664184 1.221738,1.604266 1.540306,-0.102639 2.230058,0.516365 2.559418,2.296853 0.07374,0.398618 0.420628,1.123965 0.770847,1.611887 1.404516,1.956692 1.608054,2.924729 0.841525,4.0022 -0.892451,1.254445 -3.38,1.868417 -5.025016,1.240227 z m 7.747975,-2.154622 c -1.045876,-0.475453 -1.406586,-1.27332 -1.406586,-3.111267 0,-1.117499 -0.101084,-1.639483 -0.471825,-2.436578 -0.259482,-0.55792 -0.472634,-1.187421 -0.473661,-1.398887 -0.003,-0.596492 0.540575,-1.231782 1.348864,-1.576832 L 23.482901,9.7910298 23.007844,8.8989551 C 22.746546,8.4083155 22.532766,7.8841026 22.532766,7.7340327 c 0,-0.2404749 0.37562,-0.5030579 0.719647,-0.5030579 0.06613,0 0.898562,0.7893506 1.849851,1.7541116 0.951276,0.9647596 2.11964,2.1061706 2.596349,2.5364626 1.147797,1.03608 1.844298,2.424748 1.844298,3.677149 0,1.167918 -0.30437,1.799983 -1.300571,2.700796 -1.223382,1.106239 -3.021301,1.398146 -4.492444,0.729387 z"
       id="path837"
       inkscape:connector-curvature="0"
       sodipodi:nodetypes="cssscscssscccsscsccsccsccssccsccccssssssccsscscccccssssscc" />
  </g>
  <g
     id="g856">
    <rect
       y="27"
       x="21"
       height="20"
       width="26"
       id="rect984"
       style="opacity:1;fill:#ffffff;fill-opacity:1;stroke:#000080;stroke-width:1.99997;stroke-linecap:butt;stroke-linejoin:round;stroke-miterlimit:4;stroke-dasharray:none;stroke-opacity:1;paint-order:normal;stop-opacity:1" />
    <path
       inkscape:connector-curvature="0"
       id="path868"
       d="m 29.385283,36.373801 q -1.062913,0 -1.688156,0.726195 -0.617428,0.726194 -0.617428,1.991179 0,1.257176 0.617428,1.991179 0.625243,0.726194 1.688156,0.726194 1.062914,0 1.680341,-0.726194 0.625243,-0.734003 0.625243,-1.991179 0,-1.264985 -0.625243,-1.991179 -0.617427,-0.726195 -1.680341,-0.726195 z m 3.134031,-4.942809 v 1.436773 q -0.593981,-0.281108 -1.203593,-0.429471 -0.601796,-0.148362 -1.195777,-0.148362 -1.563108,0 -2.391555,1.054154 -0.820632,1.054154 -0.937865,3.185886 0.461117,-0.679343 1.1567,-1.038536 0.695583,-0.367002 1.531846,-0.367002 1.758496,0 2.774516,1.069771 1.023836,1.061962 1.023836,2.89697 0,1.795965 -1.062913,2.881353 -1.062914,1.085387 -2.829226,1.085387 -2.024225,0 -3.094953,-1.546091 -1.07073,-1.5539 -1.07073,-4.497722 0,-2.764225 1.313011,-4.40402 1.313011,-1.647602 3.524809,-1.647602 0.593981,0 1.195777,0.117127 0.609612,0.117129 1.266117,0.351385 z"
       style="font-style:normal;font-weight:normal;font-size:16px;line-height:1.25;font-family:sans-serif;letter-spacing:0px;word-spacing:0px;opacity:1;fill:#000000;fill-opacity:1;stroke:none;stroke-width:1;stop-opacity:1" />
    <path
       inkscape:connector-curvature="0"
       id="path870"
       d="m 40.34267,32.547614 -3.985925,6.223411 H 40.34267 Z M 39.928446,31.17331 h 1.985147 v 7.597715 h 1.664711 v 1.311835 h -1.664711 v 2.748608 H 40.34267 V 40.08286 h -5.267674 v -1.522666 z"
       style="font-style:normal;font-weight:normal;font-size:16px;line-height:1.25;font-family:sans-serif;letter-spacing:0px;word-spacing:0px;opacity:1;fill:#000000;fill-opacity:1;stroke:none;stroke-width:1;stop-opacity:1" />
  </g>
</svg>
