<?xml version="1.0" encoding="UTF-8" standalone="no"?>
<svg
   xmlns:dc="http://purl.org/dc/elements/1.1/"
   xmlns:cc="http://creativecommons.org/ns#"
   xmlns:rdf="http://www.w3.org/1999/02/22-rdf-syntax-ns#"
   xmlns:svg="http://www.w3.org/2000/svg"
   xmlns="http://www.w3.org/2000/svg"
   xmlns:xlink="http://www.w3.org/1999/xlink"
   xmlns:sodipodi="http://sodipodi.sourceforge.net/DTD/sodipodi-0.dtd"
   xmlns:inkscape="http://www.inkscape.org/namespaces/inkscape"
   inkscape:export-ydpi="96"
   inkscape:export-xdpi="96"
   inkscape:export-filename="laz_paw_list-32.png"
   inkscape:version="1.0alpha2 (4ce689b, 2019-06-24)"
   sodipodi:docname="laz_paw_list-32.svg"
   width="32"
   height="32"
   viewBox="0 0 32 32"
   id="svg2"
   version="1.1">
  <sodipodi:namedview
     inkscape:document-rotation="0"
     inkscape:guide-bbox="true"
     showguides="true"
     inkscape:snap-page="true"
     inkscape:snap-center="true"
     inkscape:snap-object-midpoints="true"
     inkscape:snap-midpoints="true"
     inkscape:snap-smooth-nodes="true"
     inkscape:snap-intersection-paths="true"
     inkscape:object-paths="true"
     inkscape:snap-bbox-midpoints="true"
     inkscape:snap-bbox-edge-midpoints="true"
     inkscape:bbox-nodes="true"
     inkscape:bbox-paths="true"
     inkscape:snap-bbox="true"
     inkscape:snap-global="true"
     inkscape:current-layer="svg2"
     inkscape:window-maximized="1"
     inkscape:window-y="-8"
     inkscape:window-x="-8"
     inkscape:cy="18.705519"
     inkscape:cx="0.73458411"
     inkscape:zoom="14.365111"
     showgrid="true"
     id="namedview37"
     inkscape:window-height="1137"
     inkscape:window-width="1920"
     inkscape:pageshadow="2"
     inkscape:pageopacity="0"
     guidetolerance="10"
     gridtolerance="10"
     objecttolerance="10"
     borderopacity="1"
     bordercolor="#666666"
     pagecolor="#ffffff">
    <inkscape:grid
       empspacing="2"
       spacingy="0.5"
       spacingx="0.5"
       id="grid931"
       type="xygrid" />
  </sodipodi:namedview>
  <defs
     id="defs4">
    <filter
       inkscape:collect="always"
       style="color-interpolation-filters:sRGB"
       id="filter965"
       x="-0.017999999"
       width="1.036"
       y="-0.017999999"
       height="1.036">
      <feGaussianBlur
         inkscape:collect="always"
         stdDeviation="1.785"
         id="feGaussianBlur967" />
    </filter>
    <linearGradient
       gradientUnits="userSpaceOnUse"
       y2="242"
       x2="128"
       y1="14"
       x1="128"
       id="linearGradient882"
       xlink:href="#linearGradient880"
       inkscape:collect="always"
       gradientTransform="matrix(0.95614034,0,0,0.95614034,3.6140399,2.6140399)" />
    <linearGradient
       id="linearGradient880"
       inkscape:collect="always">
      <stop
         id="stop876"
         offset="0"
         style="stop-color:#e4e6f2;stop-opacity:1" />
      <stop
         style="stop-color:#667fb5;stop-opacity:1;"
         offset="0.3797344"
         id="stop881" />
      <stop
         style="stop-color:#5470ac;stop-opacity:1"
         offset="0.46363637"
         id="stop884" />
      <stop
         id="stop878"
         offset="1"
         style="stop-color:#47d2f9;stop-opacity:1" />
    </linearGradient>
    <filter
       height="1.072"
       y="-0.035999998"
       width="1.072"
       x="-0.035999998"
       id="filter923"
       style="color-interpolation-filters:sRGB"
       inkscape:collect="always">
      <feGaussianBlur
         id="feGaussianBlur925"
         stdDeviation="3.27"
         inkscape:collect="always" />
    </filter>
  </defs>
  <metadata
     id="metadata7">
    <rdf:RDF>
      <cc:Work
         rdf:about="">
        <dc:format>image/svg+xml</dc:format>
        <dc:type
           rdf:resource="http://purl.org/dc/dcmitype/StillImage" />
        <dc:title />
      </cc:Work>
    </rdf:RDF>
  </metadata>
  <g
     transform="translate(18,5)"
     id="g994">
    <g
       id="g886"
       transform="translate(-18,-5)">
      <ellipse
         cy="15.554253"
         cx="15.981231"
         id="path917"
         style="opacity:1;fill:#20345e;fill-opacity:1;stroke:none;stroke-width:0.5;stroke-linejoin:round;stroke-opacity:0.976471;stop-opacity:1"
         rx="15.032622"
         ry="15.054183" />
      <circle
         style="opacity:0.45;fill:#000000;fill-opacity:1;stroke:none;stroke-width:3.95522;stroke-linejoin:round;stroke-opacity:0.976471;filter:url(#filter965);stop-opacity:1"
         id="circle939"
         cx="128.31599"
         cy="132.716"
         r="119"
         transform="matrix(0.12632456,0,0,0.12650574,0.06433552,-0.3854703)" />
      <ellipse
         cy="15.554253"
         cx="15.981231"
         id="circle921"
         style="opacity:1;fill:#3371b4;fill-opacity:1;stroke:none;stroke-width:0.478992;stroke-linejoin:round;stroke-opacity:0.976471;stop-opacity:1"
         rx="14.401"
         ry="14.421655" />
      <circle
         style="opacity:1;fill:url(#linearGradient882);fill-opacity:1;stroke:none;stroke-width:3.6561;stroke-linejoin:round;stroke-opacity:0.976471;filter:url(#filter923);stop-opacity:1"
         id="circle919"
         cx="126"
         cy="125"
         r="109"
         transform="matrix(0.12632456,0,0,0.12650574,0.06433552,-0.3854703)" />
      <path
         style="opacity:1;fill:#000000;stroke-width:1.0046;stop-opacity:1"
         d="M 14.664337,25.513736 C 13.438171,25.346383 12.575536,24.6991 12.058021,23.55805 c -0.434104,-0.957121 -0.259508,-1.613699 0.616569,-2.318654 0.677951,-0.545528 0.920297,-1.103041 0.920297,-2.117131 0,-0.456726 0.06075,-0.991402 0.134987,-1.188197 0.161276,-0.42747 0.671128,-0.984274 1.203368,-1.314198 0.487337,-0.302088 2.743381,-0.883767 3.433664,-0.885301 1.07106,-0.0024 2.066406,0.570607 2.716669,1.56391 0.483955,0.739254 0.969928,1.054245 1.89965,1.23129 1.094895,0.208504 1.471235,0.452998 1.770845,1.150445 0.433945,1.010182 0.271607,2.258772 -0.396351,3.048593 -0.975051,1.15291 -5.110764,2.50659 -8.668767,2.837405 -0.2094,0.01946 -0.670479,-0.0041 -1.024615,-0.05248 z M 7.8203483,20.190828 C 7.2799681,19.949046 6.3774587,19.051193 6.0691999,18.448707 5.7125464,17.751658 5.0761576,15.238515 5.1161435,14.685036 5.1508858,14.203861 5.1899,14.144721 5.4724587,14.144721 c 0.2406744,0 0.3734183,0.115051 0.5497881,0.476514 0.2204662,0.451841 0.2465679,0.466643 0.5041612,0.285963 0.5975654,-0.419153 1.2041131,-0.256387 2.8245698,0.757969 0.8334042,0.521678 1.7294462,1.149874 1.9912042,1.395995 0.406907,0.382581 0.475617,0.526108 0.473833,0.989688 -0.0067,1.742118 -2.2270752,2.931298 -3.9956667,2.139978 z M 22.661162,16.362241 c -0.353415,-0.136168 -0.803344,-0.415644 -0.999833,-0.62102 -0.546575,-0.571323 -0.478891,-1.200565 0.317944,-2.955829 0.927493,-2.043067 1.059608,-2.232995 1.667305,-2.396863 l 0.515647,-0.13905 -0.06982,-0.6775037 c -0.0633,-0.6141776 -0.04455,-0.6841213 0.200636,-0.7483273 0.347605,-0.091032 0.629613,0.1688575 0.916633,0.8447453 0.125295,0.2950136 0.475369,1.0522897 0.777963,1.6828357 0.955796,1.991694 0.895034,3.331699 -0.19921,4.393385 -0.906696,0.879738 -1.925038,1.08086 -3.12726,0.617627 z M 10.99695,13.759233 C 9.4320626,13.161343 8.7898355,11.260184 9.517154,9.3786632 9.6949989,8.918596 9.7873913,8.3928641 9.7874352,7.8407159 c 8.36e-5,-1.1170218 0.185273,-1.6394265 0.5811658,-1.6394265 0.226174,0 0.322387,0.088146 0.3815,0.3495115 0.267556,1.1829917 0.216074,1.1153576 0.818387,1.0752001 1.03178,-0.06879 1.493814,0.3460748 1.714437,1.5393808 0.04939,0.267159 0.281759,0.7532961 0.516355,1.0803082 0.940821,1.311401 1.077162,1.960191 0.5637,2.682327 -0.597812,0.840745 -2.264108,1.252237 -3.36603,0.831216 z m 5.190016,-1.444056 c -0.700585,-0.318654 -0.942208,-0.853396 -0.942208,-2.085212 0,-0.7489625 -0.06771,-1.0988032 -0.316054,-1.6330263 C 14.754889,8.2230136 14.612108,7.8011131 14.61142,7.6593865 14.609411,7.2596094 14.973526,6.8338297 15.514962,6.6025727 L 16.008118,6.3919333 15.689899,5.7940531 c -0.175031,-0.328833 -0.318233,-0.6801674 -0.318233,-0.7807462 0,-0.1611695 0.251611,-0.337156 0.482058,-0.337156 0.0443,0 0.601907,0.5290331 1.239132,1.1756286 0.637216,0.6465945 1.41985,1.4115832 1.739176,1.6999702 0.768857,0.6943948 1.235411,1.6250984 1.235411,2.4644733 0,0.782755 -0.203884,1.206373 -0.871193,1.810109 -0.819488,0.741417 -2.023832,0.937056 -3.009284,0.488845 z"
         id="path837"
         inkscape:connector-curvature="0"
         sodipodi:nodetypes="cssscscssscccsscsccsccsccssccsccccssssssccsscscccccssssscc" />
    </g>
    <g
       id="g879"
       transform="translate(-18,-5)">
      <rect
         style="opacity:1;fill:#749acc;fill-opacity:1;stroke:none;stroke-width:2.05166;stroke-linecap:butt;stroke-linejoin:round;stroke-miterlimit:4;stroke-dasharray:none;stroke-opacity:1;paint-order:normal;stop-opacity:1"
         id="rect949"
         width="17"
         height="13"
         x="15"
         y="18" />
      <rect
         style="opacity:1;fill:#ffffff;fill-opacity:1;stroke:none;stroke-width:0.143717;stroke-linecap:butt;stroke-linejoin:round;stroke-miterlimit:4;stroke-dasharray:none;stroke-opacity:1;paint-order:normal;stop-opacity:1"
         id="rect951"
         width="7"
         height="9"
         x="16"
         y="21" />
      <rect
         y="21"
         x="24"
         height="9"
         width="7"
         id="rect891"
         style="opacity:1;fill:#ffffff;fill-opacity:1;stroke:none;stroke-width:0.143717;stroke-linecap:butt;stroke-linejoin:round;stroke-miterlimit:4;stroke-dasharray:none;stroke-opacity:1;paint-order:normal;stop-opacity:1" />
      <rect
         style="opacity:1;fill:#808080;fill-opacity:1;stroke:none;stroke-width:1.32661;stroke-linecap:butt;stroke-linejoin:round;stroke-miterlimit:4;stroke-dasharray:none;stroke-opacity:1;paint-order:normal;stop-opacity:1"
         id="rect964"
         width="5"
         height="1"
         x="17"
         y="23" />
      <rect
         y="27"
         x="17"
         height="1"
         width="5"
         id="rect998"
         style="opacity:1;fill:#808080;fill-opacity:1;stroke:none;stroke-width:1.32661;stroke-linecap:butt;stroke-linejoin:round;stroke-miterlimit:4;stroke-dasharray:none;stroke-opacity:1;paint-order:normal;stop-opacity:1" />
      <rect
         style="opacity:1;fill:#808080;fill-opacity:1;stroke:none;stroke-width:1.32661;stroke-linecap:butt;stroke-linejoin:round;stroke-miterlimit:4;stroke-dasharray:none;stroke-opacity:1;paint-order:normal;stop-opacity:1"
         id="rect1000"
         width="5"
         height="1"
         x="17"
         y="25" />
      <rect
         y="23"
         x="25"
         height="1"
         width="5"
         id="rect1007"
         style="opacity:1;fill:#808080;fill-opacity:1;stroke:none;stroke-width:1.32661;stroke-linecap:butt;stroke-linejoin:round;stroke-miterlimit:4;stroke-dasharray:none;stroke-opacity:1;paint-order:normal;stop-opacity:1" />
      <rect
         style="opacity:1;fill:#808080;fill-opacity:1;stroke:none;stroke-width:1.32661;stroke-linecap:butt;stroke-linejoin:round;stroke-miterlimit:4;stroke-dasharray:none;stroke-opacity:1;paint-order:normal;stop-opacity:1"
         id="rect1009"
         width="5"
         height="1"
         x="25"
         y="27" />
      <rect
         y="25"
         x="25"
         height="1"
         width="5"
         id="rect1011"
         style="opacity:1;fill:#808080;fill-opacity:1;stroke:none;stroke-width:1.32661;stroke-linecap:butt;stroke-linejoin:round;stroke-miterlimit:4;stroke-dasharray:none;stroke-opacity:1;paint-order:normal;stop-opacity:1" />
    </g>
  </g>
</svg>
