<?xml version="1.0" encoding="UTF-8" standalone="no"?>
<svg
   xmlns:dc="http://purl.org/dc/elements/1.1/"
   xmlns:cc="http://creativecommons.org/ns#"
   xmlns:rdf="http://www.w3.org/1999/02/22-rdf-syntax-ns#"
   xmlns:svg="http://www.w3.org/2000/svg"
   xmlns="http://www.w3.org/2000/svg"
   xmlns:xlink="http://www.w3.org/1999/xlink"
   xmlns:sodipodi="http://sodipodi.sourceforge.net/DTD/sodipodi-0.dtd"
   xmlns:inkscape="http://www.inkscape.org/namespaces/inkscape"
   version="1.1"
   id="svg2"
   viewBox="0 0 16 16"
   height="16"
   width="16"
   sodipodi:docname="laz_paw_edit-16.svg"
   inkscape:version="1.0alpha2 (4ce689b, 2019-06-24)"
   inkscape:export-filename="laz_paw_edit-16.png"
   inkscape:export-xdpi="96"
   inkscape:export-ydpi="96">
  <sodipodi:namedview
     pagecolor="#ffffff"
     bordercolor="#666666"
     borderopacity="1"
     objecttolerance="10"
     gridtolerance="10"
     guidetolerance="10"
     inkscape:pageopacity="0"
     inkscape:pageshadow="2"
     inkscape:window-width="1920"
     inkscape:window-height="1137"
     id="namedview37"
     showgrid="true"
     inkscape:zoom="39.995607"
     inkscape:cx="5.2822822"
     inkscape:cy="8.7140303"
     inkscape:window-x="-8"
     inkscape:window-y="-8"
     inkscape:window-maximized="1"
     inkscape:current-layer="svg2"
     inkscape:snap-global="false"
     inkscape:snap-bbox="true"
     inkscape:bbox-paths="true"
     inkscape:bbox-nodes="true"
     inkscape:snap-bbox-edge-midpoints="true"
     inkscape:snap-bbox-midpoints="true"
     inkscape:object-paths="true"
     inkscape:snap-intersection-paths="true"
     inkscape:snap-smooth-nodes="true"
     inkscape:snap-midpoints="true"
     inkscape:snap-object-midpoints="true"
     inkscape:snap-center="true"
     inkscape:snap-page="true"
     showguides="true"
     inkscape:guide-bbox="true"
     inkscape:document-rotation="0">
    <inkscape:grid
       type="xygrid"
       id="grid931"
       spacingx="0.5"
       spacingy="0.5"
       empspacing="2" />
  </sodipodi:namedview>
  <defs
     id="defs4">
    <linearGradient
       inkscape:collect="always"
       id="linearGradient880">
      <stop
         style="stop-color:#e4e6f2;stop-opacity:1"
         offset="0"
         id="stop876" />
      <stop
         id="stop881"
         offset="0.3797344"
         style="stop-color:#667fb5;stop-opacity:1;" />
      <stop
         id="stop884"
         offset="0.46363637"
         style="stop-color:#5470ac;stop-opacity:1" />
      <stop
         style="stop-color:#47d2f9;stop-opacity:1"
         offset="1"
         id="stop878" />
    </linearGradient>
    <linearGradient
       gradientTransform="matrix(0.95614034,0,0,0.95614034,-323.17433,-186.01292)"
       inkscape:collect="always"
       xlink:href="#linearGradient880"
       id="linearGradient882"
       x1="128"
       y1="14"
       x2="128"
       y2="242"
       gradientUnits="userSpaceOnUse" />
    <filter
       height="1.036"
       y="-0.018"
       width="1.036"
       x="-0.018"
       id="filter965"
       style="color-interpolation-filters:sRGB"
       inkscape:collect="always">
      <feGaussianBlur
         id="feGaussianBlur967"
         stdDeviation="1.785"
         inkscape:collect="always" />
    </filter>
    <filter
       inkscape:collect="always"
       style="color-interpolation-filters:sRGB"
       id="filter923"
       x="-0.036"
       width="1.072"
       y="-0.036"
       height="1.072">
      <feGaussianBlur
         inkscape:collect="always"
         stdDeviation="3.27"
         id="feGaussianBlur925" />
    </filter>
    <linearGradient
       id="linearGradient1207"
       inkscape:collect="always">
      <stop
         id="stop1203"
         offset="0"
         style="stop-color:#a05a2c;stop-opacity:1" />
      <stop
         style="stop-color:#ffff00;stop-opacity:1;"
         offset="0.26457807"
         id="stop1211" />
      <stop
         id="stop1213"
         offset="0.75078517"
         style="stop-color:#ffff00;stop-opacity:1;" />
      <stop
         id="stop1205"
         offset="1"
         style="stop-color:#a05a2c;stop-opacity:1" />
    </linearGradient>
    <linearGradient
       id="linearGradient1169"
       inkscape:collect="always">
      <stop
         id="stop1165"
         offset="0"
         style="stop-color:#aa0000;stop-opacity:1" />
      <stop
         style="stop-color:#ff0000;stop-opacity:1"
         offset="0.51070523"
         id="stop1173" />
      <stop
         id="stop1167"
         offset="1"
         style="stop-color:#aa0000;stop-opacity:1" />
    </linearGradient>
    <linearGradient
       id="linearGradient1149"
       inkscape:collect="always">
      <stop
         id="stop1145"
         offset="0"
         style="stop-color:#999999;stop-opacity:1" />
      <stop
         style="stop-color:#ffffff;stop-opacity:1"
         offset="0.49999997"
         id="stop1153" />
      <stop
         id="stop1147"
         offset="1"
         style="stop-color:#999999;stop-opacity:1" />
    </linearGradient>
    <linearGradient
       inkscape:collect="always"
       xlink:href="#linearGradient1149"
       id="linearGradient1095"
       gradientUnits="userSpaceOnUse"
       gradientTransform="matrix(0.80057708,0,0,0.63671282,-12.157163,-658.66118)"
       x1="34"
       y1="1029.3622"
       x2="37"
       y2="1029.3622" />
    <linearGradient
       inkscape:collect="always"
       xlink:href="#linearGradient1169"
       id="linearGradient1097"
       gradientUnits="userSpaceOnUse"
       gradientTransform="matrix(0.80057708,0,0,0.63671282,-12.157163,-658.66118)"
       x1="34"
       y1="1027.3622"
       x2="37"
       y2="1027.3622" />
    <linearGradient
       inkscape:collect="always"
       xlink:href="#linearGradient1207"
       id="linearGradient1099"
       gradientUnits="userSpaceOnUse"
       gradientTransform="matrix(0.80057708,0,0,0.63671282,-12.157163,-659.48439)"
       x1="34"
       y1="1033.8622"
       x2="37"
       y2="1033.8622" />
  </defs>
  <metadata
     id="metadata7">
    <rdf:RDF>
      <cc:Work
         rdf:about="">
        <dc:format>image/svg+xml</dc:format>
        <dc:type
           rdf:resource="http://purl.org/dc/dcmitype/StillImage" />
        <dc:title />
      </cc:Work>
    </rdf:RDF>
  </metadata>
  <g
     id="g4927">
    <ellipse
       cy="7.6466098"
       cx="7.750062"
       id="path917"
       style="opacity:1;fill:#20345e;fill-opacity:1;stroke:none;stroke-width:0.5;stroke-linejoin:round;stroke-opacity:0.976471;stop-opacity:1"
       rx="7.6239777"
       ry="7.6466093" />
    <circle
       style="opacity:0.45;fill:#000000;fill-opacity:1;stroke:none;stroke-width:7.79276;stroke-linejoin:round;stroke-opacity:0.976471;filter:url(#filter965);stop-opacity:1"
       id="circle939"
       cx="-198.47238"
       cy="-55.910957"
       r="119"
       transform="matrix(0.06406704,0,0,0.06425722,20.613979,11.670844)" />
    <ellipse
       cy="7.6466098"
       cx="7.750062"
       id="circle921"
       style="opacity:1;fill:#3371b4;fill-opacity:1;stroke:none;stroke-width:0.478992;stroke-linejoin:round;stroke-opacity:0.976471;stop-opacity:1"
       rx="7.3036427"
       ry="7.3253231" />
    <circle
       style="opacity:1;fill:url(#linearGradient882);fill-opacity:1;stroke:none;stroke-width:7.20341;stroke-linejoin:round;stroke-opacity:0.976471;filter:url(#filter923);stop-opacity:1"
       id="circle919"
       cx="-200.78838"
       cy="-63.626961"
       r="109"
       transform="matrix(0.06406704,0,0,0.06425722,20.613979,11.670844)" />
    <path
       style="opacity:1;fill:#000000;stroke-width:1.0046;stop-opacity:1"
       d="m 7.0821841,12.705421 c -0.6218648,-0.085 -1.0593607,-0.413785 -1.3218248,-0.993369 -0.2201612,-0.48616 -0.1316129,-0.819661 0.3127003,-1.177736 0.3438312,-0.277095 0.46674,-0.5602771 0.46674,-1.0753732 0,-0.2319892 0.030809,-0.5035723 0.06846,-0.6035321 C 6.6900528,8.6382823 6.9486306,8.3554593 7.2185623,8.1878784 7.4657214,8.034436 8.6099017,7.7389781 8.9599871,7.7381993 c 0.5432014,-0.00121 1.0480029,0.2898335 1.3777919,0.7943709 0.245443,0.3754961 0.49191,0.5354927 0.96343,0.6254207 0.55529,0.1059074 0.746155,0.2300954 0.898106,0.5843558 0.220081,0.5131113 0.137749,1.1473193 -0.201014,1.5485003 -0.494509,0.585608 -2.5919864,1.273195 -4.3964711,1.441229 -0.1061994,0.0099 -0.3400416,-0.0021 -0.5196458,-0.02665 z M 3.6111722,10.001707 C 3.3371113,9.8788971 2.8793927,9.4228424 2.7230556,9.1168161 2.5421745,8.7627576 2.2194221,7.4862339 2.2397012,7.2051002 2.2573216,6.9606927 2.277108,6.9306531 2.4204113,6.9306531 c 0.1220605,0 0.1893834,0.058439 0.2788313,0.2420403 0.1118123,0.2295075 0.1250498,0.2370262 0.2556915,0.1452515 0.3030627,-0.2129041 0.6106806,-0.1302288 1.4325153,0.3850023 0.4226714,0.2649807 0.8771092,0.584066 1.0098631,0.7090803 0.2063677,0.194328 0.241215,0.267231 0.2403104,0.5027016 -0.0034,0.88489 -1.1294885,1.4889209 -2.0264507,1.0869779 z M 11.137871,8.0570186 C 10.958633,7.9878534 10.730446,7.8458964 10.630794,7.741578 10.353592,7.4513808 10.387918,7.1317641 10.792043,6.2401965 11.262432,5.202443 11.329436,5.1059711 11.637637,5.0227361 l 0.261517,-0.070629 -0.03541,-0.3441308 c -0.0321,-0.3119649 -0.02259,-0.3474921 0.101755,-0.3801046 0.176292,-0.046239 0.319316,0.085769 0.464882,0.4290795 0.06354,0.1498485 0.241089,0.5344987 0.394553,0.8547779 0.484744,1.0116592 0.453927,1.6923006 -0.101032,2.2315722 -0.459841,0.4468538 -0.976306,0.5490112 -1.586028,0.3137173 z M 5.2222244,6.7348485 C 4.4285721,6.4311567 4.1028591,5.4654838 4.4717277,4.5097855 4.5619238,4.2760993 4.6087818,4.0090598 4.6088042,3.7286021 c 4.23e-5,-0.567379 0.093963,-0.8327292 0.2947449,-0.8327292 0.114707,0 0.1635023,0.044773 0.1934825,0.1775311 0.1356946,0.6008873 0.1095848,0.5665334 0.4150545,0.5461356 0.5232803,-0.034941 0.7576062,0.1757853 0.869498,0.7819121 C 6.4066349,4.537152 6.5244818,4.7840803 6.64346,4.9501826 7.1206089,5.6162943 7.1897558,5.9458406 6.929347,6.3126413 6.6261594,6.739689 5.7810773,6.9487017 5.2222244,6.7348485 Z M 7.854404,6.0013562 C 7.4990939,5.839499 7.3765516,5.5678831 7.3765516,4.9421955 7.3765516,4.5617677 7.3422111,4.3840701 7.216261,4.112717 7.1281086,3.9227862 7.0556956,3.7084864 7.0553464,3.6364978 7.0543277,3.4334353 7.2389933,3.2171654 7.5135891,3.0997007 L 7.7636991,2.9927085 7.6023104,2.6890218 C 7.5135411,2.5219948 7.4409147,2.3435384 7.4409147,2.2924501 c 0,-0.081864 0.1276074,-0.1712545 0.2444817,-0.1712545 0.022465,0 0.3052641,0.2687166 0.6284406,0.5971481 0.3231721,0.3284302 0.7200944,0.7169981 0.8820443,0.8634808 0.3899351,0.3527105 0.6265539,0.8254515 0.6265539,1.2518033 0,0.3975915 -0.1034023,0.6127636 -0.4418365,0.919425 C 8.9649856,6.1296471 8.3541877,6.2290202 7.854404,6.0013562 Z"
       id="path837"
       inkscape:connector-curvature="0"
       sodipodi:nodetypes="cssscscssscccsscsccsccsccssccsccccssssssccsscscccccssssscc" />
  </g>
  <g
     id="g4920">
    <g
       id="g4909">
      <rect
         style="opacity:1;fill:#548cc2;fill-opacity:1;stroke:none;stroke-width:0;stroke-linecap:round;stroke-linejoin:round;stroke-miterlimit:4;stroke-dasharray:none;stroke-dashoffset:0;stroke-opacity:1;paint-order:normal;stop-opacity:1"
         id="rect1067"
         width="8"
         height="9"
         x="7.5"
         y="7" />
      <rect
         style="opacity:1;fill:#ffffff;fill-opacity:1;stroke:none;stroke-width:0;stroke-linecap:round;stroke-linejoin:round;stroke-miterlimit:4;stroke-dasharray:none;stroke-dashoffset:0;stroke-opacity:1;paint-order:normal;stop-opacity:1"
         id="rect1069"
         width="6.9333339"
         height="7.9411764"
         x="8.0333338"
         y="7.5294199" />
    </g>
    <g
       id="g4905">
      <rect
         transform="rotate(45)"
         y="-3.8898039"
         x="15.062457"
         height="1.2734368"
         width="2.4017313"
         id="rect1081"
         style="opacity:1;fill:url(#linearGradient1095);fill-opacity:1;fill-rule:evenodd;stroke:none;stroke-width:0.102931;stroke-linecap:round;stroke-linejoin:miter;stroke-miterlimit:4;stroke-dasharray:none;stroke-dashoffset:0;stroke-opacity:1;paint-order:normal;stop-opacity:1" />
      <rect
         transform="rotate(45)"
         y="-5.1632295"
         x="15.062457"
         height="1.2734368"
         width="2.4017313"
         id="rect1083"
         style="opacity:1;fill:url(#linearGradient1097);fill-opacity:1;fill-rule:evenodd;stroke:none;stroke-width:0.0686209;stroke-linecap:round;stroke-linejoin:miter;stroke-miterlimit:4;stroke-dasharray:none;stroke-dashoffset:0;stroke-opacity:1;paint-order:normal;stop-opacity:1" />
      <rect
         transform="rotate(45)"
         y="-2.6163671"
         x="15.062457"
         height="3.6337819"
         width="2.401731"
         id="rect1085"
         style="opacity:1;fill:url(#linearGradient1099);fill-opacity:1;fill-rule:evenodd;stroke:none;stroke-width:0.102931;stroke-linecap:round;stroke-linejoin:miter;stroke-miterlimit:4;stroke-dasharray:none;stroke-dashoffset:0;stroke-opacity:1;paint-order:normal;stop-opacity:1" />
      <path
         inkscape:connector-curvature="0"
         id="path1087"
         d="m 9.9313444,11.370185 -0.7861675,1.918507 0.566093,0.566094 1.9183551,-0.786321 z"
         style="opacity:1;fill:#d38d5f;fill-opacity:1;fill-rule:evenodd;stroke:none;stroke-width:0.343104px;stroke-linecap:butt;stroke-linejoin:miter;stroke-opacity:1;stop-opacity:1"
         sodipodi:nodetypes="ccccc" />
      <path
         inkscape:connector-curvature="0"
         id="path1089"
         d="m 9.4080054,12.647292 0.9440446,0.944044 -0.6407801,0.26345 C 8.9897612,14.150528 8.8494925,14.01026 9.1451769,13.288692 Z"
         style="opacity:1;fill:#333333;fill-rule:evenodd;stroke:none;stroke-width:0.343104px;stroke-linecap:butt;stroke-linejoin:miter;stroke-opacity:1;stop-opacity:1"
         sodipodi:nodetypes="ccccc" />
    </g>
  </g>
</svg>
