<?xml version="1.0" encoding="UTF-8" standalone="no"?>
<svg
   xmlns:dc="http://purl.org/dc/elements/1.1/"
   xmlns:cc="http://creativecommons.org/ns#"
   xmlns:rdf="http://www.w3.org/1999/02/22-rdf-syntax-ns#"
   xmlns:svg="http://www.w3.org/2000/svg"
   xmlns="http://www.w3.org/2000/svg"
   xmlns:xlink="http://www.w3.org/1999/xlink"
   xmlns:sodipodi="http://sodipodi.sourceforge.net/DTD/sodipodi-0.dtd"
   xmlns:inkscape="http://www.inkscape.org/namespaces/inkscape"
   version="1.1"
   id="svg2"
   viewBox="0 0 40 40"
   height="40"
   width="40"
   sodipodi:docname="laz_paw_32-40.svg"
   inkscape:version="1.0alpha2 (4ce689b, 2019-06-24)"
   inkscape:export-filename="laz_paw_32-40.png"
   inkscape:export-xdpi="96"
   inkscape:export-ydpi="96">
  <sodipodi:namedview
     pagecolor="#ffffff"
     bordercolor="#666666"
     borderopacity="1"
     objecttolerance="10"
     gridtolerance="10"
     guidetolerance="10"
     inkscape:pageopacity="0"
     inkscape:pageshadow="2"
     inkscape:window-width="1920"
     inkscape:window-height="1137"
     id="namedview37"
     showgrid="true"
     inkscape:zoom="16.40852"
     inkscape:cx="20.563032"
     inkscape:cy="21.33367"
     inkscape:window-x="-8"
     inkscape:window-y="-8"
     inkscape:window-maximized="1"
     inkscape:current-layer="svg2"
     inkscape:snap-global="false"
     inkscape:snap-bbox="true"
     inkscape:bbox-paths="true"
     inkscape:bbox-nodes="true"
     inkscape:snap-bbox-edge-midpoints="true"
     inkscape:snap-bbox-midpoints="true"
     inkscape:object-paths="true"
     inkscape:snap-intersection-paths="true"
     inkscape:snap-smooth-nodes="true"
     inkscape:snap-midpoints="true"
     inkscape:snap-object-midpoints="true"
     inkscape:snap-center="true"
     inkscape:snap-page="true"
     showguides="true"
     inkscape:guide-bbox="true"
     inkscape:document-rotation="0">
    <inkscape:grid
       type="xygrid"
       id="grid931"
       spacingx="0.5"
       spacingy="0.5"
       empspacing="2" />
  </sodipodi:namedview>
  <defs
     id="defs4">
    <linearGradient
       id="linearGradient880"
       inkscape:collect="always">
      <stop
         id="stop876"
         offset="0"
         style="stop-color:#e4e6f2;stop-opacity:1" />
      <stop
         style="stop-color:#667fb5;stop-opacity:1;"
         offset="0.3797344"
         id="stop881" />
      <stop
         style="stop-color:#5470ac;stop-opacity:1"
         offset="0.46363637"
         id="stop884" />
      <stop
         id="stop878"
         offset="1"
         style="stop-color:#47d2f9;stop-opacity:1" />
    </linearGradient>
    <linearGradient
       gradientUnits="userSpaceOnUse"
       y2="242"
       x2="128"
       y1="14"
       x1="128"
       id="linearGradient882"
       xlink:href="#linearGradient880"
       inkscape:collect="always"
       gradientTransform="matrix(0.95614034,0,0,0.95614034,3.6140399,2.6140399)" />
    <filter
       inkscape:collect="always"
       style="color-interpolation-filters:sRGB"
       id="filter965"
       x="-0.018"
       width="1.036"
       y="-0.018"
       height="1.036">
      <feGaussianBlur
         inkscape:collect="always"
         stdDeviation="1.785"
         id="feGaussianBlur967" />
    </filter>
    <filter
       height="1.072"
       y="-0.036"
       width="1.072"
       x="-0.036"
       id="filter923"
       style="color-interpolation-filters:sRGB"
       inkscape:collect="always">
      <feGaussianBlur
         id="feGaussianBlur925"
         stdDeviation="3.27"
         inkscape:collect="always" />
    </filter>
  </defs>
  <metadata
     id="metadata7">
    <rdf:RDF>
      <cc:Work
         rdf:about="">
        <dc:format>image/svg+xml</dc:format>
        <dc:type
           rdf:resource="http://purl.org/dc/dcmitype/StillImage" />
        <dc:title />
      </cc:Work>
    </rdf:RDF>
  </metadata>
  <g
     id="g4586">
    <ellipse
       style="opacity:1;fill:#20345e;fill-opacity:1;stroke:none;stroke-width:0.5;stroke-linejoin:round;stroke-opacity:0.976471;stop-opacity:1"
       id="path917"
       cx="19.642872"
       cy="19.638535"
       rx="18.634695"
       ry="18.638535" />
    <circle
       r="119"
       cy="132.716"
       cx="128.31599"
       id="circle939"
       style="opacity:0.45;fill:#000000;fill-opacity:1;stroke:none;stroke-width:3.19264;stroke-linejoin:round;stroke-opacity:0.976471;filter:url(#filter965);stop-opacity:1"
       transform="matrix(0.15659407,0,0,0.15662634,-0.08798049,-0.09638438)" />
    <ellipse
       style="opacity:1;fill:#3371b4;fill-opacity:1;stroke:none;stroke-width:0.478991;stroke-linejoin:round;stroke-opacity:0.976471;stop-opacity:1"
       id="circle921"
       cx="19.642872"
       cy="19.638535"
       rx="17.851725"
       ry="17.855402" />
    <circle
       r="109"
       cy="125"
       cx="126"
       id="circle919"
       style="opacity:1;fill:url(#linearGradient882);fill-opacity:1;stroke:none;stroke-width:2.95118;stroke-linejoin:round;stroke-opacity:0.976471;filter:url(#filter923);stop-opacity:1"
       transform="matrix(0.15659407,0,0,0.15662634,-0.08798049,-0.09638438)" />
    <path
       sodipodi:nodetypes="cssscscssscccsscsccsccsccssccsccccssssssccsscscccccssssscc"
       inkscape:connector-curvature="0"
       id="path837"
       d="m 18.010429,31.969338 c -1.519975,-0.2072 -2.589312,-1.008599 -3.230833,-2.421329 -0.538123,-1.185008 -0.321691,-1.997915 0.764309,-2.870718 0.8404,-0.675417 1.140816,-1.365671 1.140816,-2.621212 0,-0.565472 0.0753,-1.227453 0.167332,-1.471104 0.19992,-0.529248 0.831942,-1.218626 1.491715,-1.627103 0.604112,-0.374015 3.400742,-1.09419 4.256429,-1.096089 1.327704,-0.003 2.561551,0.706467 3.367629,1.936272 0.599918,0.915268 1.202338,1.305258 2.354838,1.524456 1.357251,0.258149 1.823768,0.560856 2.19517,1.424362 0.537926,1.250703 0.336688,2.796579 -0.491323,3.774453 -1.20869,1.427415 -6.335391,3.103401 -10.745952,3.512982 -0.259575,0.02409 -0.831137,-0.0051 -1.27013,-0.06497 z M 9.5265047,25.379062 C 8.8566402,25.079713 7.7378742,23.968084 7.3557514,23.222148 6.9136376,22.359134 6.1247593,19.24762 6.1743265,18.56236 c 0.043067,-0.595741 0.09143,-0.668962 0.4416944,-0.668962 0.2983441,0 0.4628956,0.142443 0.6815266,0.58997 0.2732936,0.559423 0.3056497,0.577749 0.6249668,0.354049 0.7407523,-0.518951 1.492639,-0.317431 3.5013847,0.93844 1.033103,0.645887 2.14385,1.423655 2.46833,1.728376 0.504409,0.473672 0.589584,0.651373 0.587372,1.22533 -0.0083,2.156911 -2.76072,3.62923 -4.9530963,2.649499 z m 18.3969243,-4.74016 c -0.438099,-0.168589 -0.995838,-0.514608 -1.239409,-0.768883 -0.677544,-0.707353 -0.593642,-1.486415 0.394128,-3.659603 1.149736,-2.529514 1.313508,-2.764663 2.06682,-2.967547 l 0.639204,-0.172158 -0.08656,-0.838815 c -0.07847,-0.760411 -0.05522,-0.847008 0.248712,-0.926501 0.430897,-0.112707 0.780479,0.209062 1.136274,1.045876 0.155317,0.365255 0.589276,1.302836 0.964376,2.083513 1.184821,2.46591 1.109499,4.124966 -0.246944,5.439436 -1.123955,1.089201 -2.38631,1.338209 -3.876605,0.764682 z M 13.464274,17.416126 c -1.939861,-0.740246 -2.735977,-3.094064 -1.83438,-5.423569 0.220459,-0.569608 0.334991,-1.220515 0.335045,-1.904127 1.04e-4,-1.3829814 0.229668,-2.0297689 0.720423,-2.0297689 0.280369,0 0.399636,0.1091335 0.472914,0.432729 0.331667,1.4646581 0.267849,1.3809205 1.014486,1.3312017 1.279013,-0.085169 1.851757,0.4284742 2.125245,1.9059022 0.06123,0.330769 0.349274,0.932654 0.640083,1.337526 1.166258,1.623641 1.335269,2.426907 0.698772,3.32098 -0.741058,1.040924 -2.806627,1.550391 -4.172588,1.029126 z m 6.433632,-1.787881 c -0.868456,-0.394525 -1.167977,-1.056586 -1.167977,-2.581693 0,-0.927289 -0.08394,-1.360425 -0.391786,-2.021845 -0.215464,-0.462956 -0.392458,-0.985309 -0.393311,-1.1607807 -0.0025,-0.4949628 0.448874,-1.0221191 1.120047,-1.3084377 L 19.676203,8.2946967 19.281734,7.5544632 C 19.064761,7.1473361 18.887246,6.7123501 18.887246,6.5878239 c 0,-0.1995434 0.311901,-0.4174318 0.597568,-0.4174318 0.05491,0 0.746133,0.6549941 1.536049,1.4555419 0.789904,0.8005465 1.76007,1.7476765 2.155912,2.1047275 0.953087,0.8597275 1.531436,2.0120295 1.531436,3.0512565 0,0.969126 -0.252738,1.493606 -1.079946,2.24109 -1.015851,0.917945 -2.508776,1.160166 -3.730359,0.605237 z"
       style="opacity:1;fill:#000000;stroke-width:1.0046;stop-opacity:1" />
  </g>
  <g
     id="g4579">
    <rect
       y="21.994152"
       x="17.006126"
       height="17.005848"
       width="21.993874"
       id="rect849"
       style="opacity:1;fill:#ffffff;fill-opacity:1;stroke:#000080;stroke-width:2;stroke-linecap:butt;stroke-linejoin:round;stroke-miterlimit:4;stroke-dasharray:none;stroke-opacity:1;paint-order:normal;stop-opacity:1" />
    <path
       d="m 30.731896,34.107468 h 4.602459 v 1.066492 h -6.188838 v -1.066492 q 0.750758,-0.746545 2.043362,-2.001241 1.299134,-1.26097 1.632077,-1.624834 0.633246,-0.68381 0.881322,-1.15432 0.254603,-0.476785 0.254603,-0.934749 0,-0.746546 -0.548377,-1.217056 -0.54185,-0.470511 -1.416643,-0.470511 -0.620189,0 -1.31219,0.207025 -0.685473,0.207025 -1.46887,0.627349 V 26.25934 q 0.796453,-0.3074 1.488453,-0.464239 0.692003,-0.156838 1.266492,-0.156838 1.514568,0 2.415476,0.727724 0.900908,0.727724 0.900908,1.94478 0,0.57716 -0.228503,1.09786 -0.221968,0.514425 -0.816038,1.217053 -0.16321,0.181932 -1.038002,1.053946 -0.874793,0.865742 -2.467701,2.42784 z"
       style="font-style:normal;font-weight:normal;font-size:5.40176px;line-height:1.25;font-family:sans-serif;letter-spacing:0px;word-spacing:0px;opacity:1;fill:#000000;fill-opacity:1;stroke:none;stroke-width:2;stop-opacity:1"
       id="path857"
       inkscape:connector-curvature="0" />
    <path
       d="m 25.078381,30.123805 q 0.946604,0.19449 1.475398,0.80928 0.53532,0.6148 0.53532,1.518182 0,1.386441 -0.992301,2.145533 -0.992304,0.759092 -2.82023,0.759092 -0.613661,0 -1.266492,-0.119187 -0.646303,-0.112931 -1.338304,-0.345042 v -1.223331 q 0.548378,0.307403 1.201209,0.464239 0.652831,0.156838 1.364417,0.156838 1.240379,0 1.886681,-0.47051 0.652831,-0.470511 0.652831,-1.36762 0,-0.8281 -0.607133,-1.292338 -0.600604,-0.470511 -1.677775,-0.470511 h -1.135926 v -1.041411 h 1.188152 q 0.972718,0 1.488455,-0.370135 0.515736,-0.376408 0.515736,-1.079039 0,-0.721449 -0.535321,-1.104131 -0.528793,-0.388957 -1.521096,-0.388957 -0.54185,0 -1.162039,0.112931 -0.62019,0.112932 -1.364417,0.351317 v -1.129227 q 0.750756,-0.200746 1.403587,-0.301128 0.659359,-0.100373 1.240378,-0.100373 1.501512,0 2.376305,0.658714 0.874793,0.652443 0.874793,1.769123 0,0.777913 -0.46351,1.317432 -0.46351,0.533246 -1.318718,0.74027 z"
       style="font-style:normal;font-weight:normal;font-size:5.40176px;line-height:1.25;font-family:sans-serif;letter-spacing:0px;word-spacing:0px;opacity:1;fill:#000000;fill-opacity:1;stroke:none;stroke-width:2;stop-opacity:1"
       id="path855"
       inkscape:connector-curvature="0" />
  </g>
</svg>
