<?xml version="1.0" encoding="UTF-8" standalone="no"?>
<svg
   xmlns:dc="http://purl.org/dc/elements/1.1/"
   xmlns:cc="http://creativecommons.org/ns#"
   xmlns:rdf="http://www.w3.org/1999/02/22-rdf-syntax-ns#"
   xmlns:svg="http://www.w3.org/2000/svg"
   xmlns="http://www.w3.org/2000/svg"
   xmlns:xlink="http://www.w3.org/1999/xlink"
   xmlns:sodipodi="http://sodipodi.sourceforge.net/DTD/sodipodi-0.dtd"
   xmlns:inkscape="http://www.inkscape.org/namespaces/inkscape"
   version="1.1"
   id="svg2"
   viewBox="0 0 32 32"
   height="32"
   width="32"
   sodipodi:docname="laz_paw_gear-32.svg"
   inkscape:version="1.0alpha2 (4ce689b, 2019-06-24)"
   inkscape:export-filename="laz_paw_gear-32.png"
   inkscape:export-xdpi="96"
   inkscape:export-ydpi="96">
  <sodipodi:namedview
     pagecolor="#ffffff"
     bordercolor="#666666"
     borderopacity="1"
     objecttolerance="10"
     gridtolerance="10"
     guidetolerance="10"
     inkscape:pageopacity="0"
     inkscape:pageshadow="2"
     inkscape:window-width="1920"
     inkscape:window-height="1137"
     id="namedview37"
     showgrid="true"
     inkscape:zoom="28.730222"
     inkscape:cx="15.843797"
     inkscape:cy="16.249965"
     inkscape:window-x="-8"
     inkscape:window-y="-8"
     inkscape:window-maximized="1"
     inkscape:current-layer="svg2"
     inkscape:snap-global="true"
     inkscape:snap-bbox="true"
     inkscape:bbox-paths="true"
     inkscape:bbox-nodes="true"
     inkscape:snap-bbox-edge-midpoints="true"
     inkscape:snap-bbox-midpoints="true"
     inkscape:object-paths="true"
     inkscape:snap-intersection-paths="true"
     inkscape:snap-smooth-nodes="true"
     inkscape:snap-midpoints="true"
     inkscape:snap-object-midpoints="true"
     inkscape:snap-center="true"
     inkscape:snap-page="true"
     showguides="true"
     inkscape:guide-bbox="true"
     inkscape:document-rotation="0">
    <inkscape:grid
       type="xygrid"
       id="grid931"
       spacingx="0.5"
       spacingy="0.5"
       empspacing="2" />
  </sodipodi:namedview>
  <defs
     id="defs4">
    <linearGradient
       id="linearGradient880"
       inkscape:collect="always">
      <stop
         id="stop876"
         offset="0"
         style="stop-color:#e4e6f2;stop-opacity:1" />
      <stop
         style="stop-color:#667fb5;stop-opacity:1;"
         offset="0.3797344"
         id="stop881" />
      <stop
         style="stop-color:#5470ac;stop-opacity:1"
         offset="0.46363637"
         id="stop884" />
      <stop
         id="stop878"
         offset="1"
         style="stop-color:#47d2f9;stop-opacity:1" />
    </linearGradient>
    <linearGradient
       gradientUnits="userSpaceOnUse"
       y2="242"
       x2="128"
       y1="14"
       x1="128"
       id="linearGradient882"
       xlink:href="#linearGradient880"
       inkscape:collect="always"
       gradientTransform="matrix(0.95614034,0,0,0.95614034,3.6140399,2.6140399)" />
    <filter
       inkscape:collect="always"
       style="color-interpolation-filters:sRGB"
       id="filter965"
       x="-0.018"
       width="1.036"
       y="-0.018"
       height="1.036">
      <feGaussianBlur
         inkscape:collect="always"
         stdDeviation="1.785"
         id="feGaussianBlur967" />
    </filter>
    <filter
       height="1.072"
       y="-0.036"
       width="1.072"
       x="-0.036"
       id="filter923"
       style="color-interpolation-filters:sRGB"
       inkscape:collect="always">
      <feGaussianBlur
         id="feGaussianBlur925"
         stdDeviation="3.27"
         inkscape:collect="always" />
    </filter>
  </defs>
  <metadata
     id="metadata7">
    <rdf:RDF>
      <cc:Work
         rdf:about="">
        <dc:format>image/svg+xml</dc:format>
        <dc:type
           rdf:resource="http://purl.org/dc/dcmitype/StillImage" />
        <dc:title />
      </cc:Work>
    </rdf:RDF>
  </metadata>
  <g
     id="g899">
    <ellipse
       ry="15.054183"
       rx="15.032622"
       style="opacity:1;fill:#20345e;fill-opacity:1;stroke:none;stroke-width:0.5;stroke-linejoin:round;stroke-opacity:0.976471;stop-opacity:1"
       id="path917"
       cx="15.55123"
       cy="15.554183" />
    <circle
       transform="matrix(0.12632456,0,0,0.12650574,-0.36566448,-0.38554018)"
       r="119"
       cy="132.716"
       cx="128.31599"
       id="circle939"
       style="opacity:0.45;fill:#000000;fill-opacity:1;stroke:none;stroke-width:3.95522;stroke-linejoin:round;stroke-opacity:0.976471;filter:url(#filter965);stop-opacity:1" />
    <ellipse
       ry="14.421655"
       rx="14.401"
       style="opacity:1;fill:#3371b4;fill-opacity:1;stroke:none;stroke-width:0.478992;stroke-linejoin:round;stroke-opacity:0.976471;stop-opacity:1"
       id="circle921"
       cx="15.55123"
       cy="15.554183" />
    <circle
       transform="matrix(0.12632456,0,0,0.12650574,-0.36566448,-0.38554018)"
       r="109"
       cy="125"
       cx="126"
       id="circle919"
       style="opacity:1;fill:url(#linearGradient882);fill-opacity:1;stroke:none;stroke-width:3.6561;stroke-linejoin:round;stroke-opacity:0.976471;filter:url(#filter923);stop-opacity:1" />
    <path
       sodipodi:nodetypes="cssscscssscccsscsccsccsccssccsccccssssssccsscscccccssssscc"
       inkscape:connector-curvature="0"
       id="path837"
       d="m 14.234337,25.513666 c -1.226166,-0.167353 -2.088801,-0.814636 -2.606316,-1.955686 -0.434104,-0.957121 -0.259508,-1.613699 0.616569,-2.318654 0.677951,-0.545528 0.920297,-1.103041 0.920297,-2.117131 0,-0.456726 0.06075,-0.991402 0.134987,-1.188197 0.161276,-0.42747 0.671128,-0.984274 1.203368,-1.314198 0.487337,-0.302088 2.743381,-0.883767 3.433664,-0.885301 1.07106,-0.0024 2.066406,0.570607 2.716669,1.56391 0.483955,0.739254 0.969928,1.054245 1.89965,1.23129 1.094895,0.208504 1.471235,0.452998 1.770845,1.150445 0.433945,1.010182 0.271607,2.258772 -0.396351,3.048593 -0.975051,1.15291 -5.110764,2.50659 -8.668767,2.837405 -0.2094,0.01946 -0.670479,-0.0041 -1.024615,-0.05248 z M 7.3903483,20.190758 C 6.8499681,19.948976 5.9474587,19.051123 5.6391999,18.448637 5.2825464,17.751588 4.6461576,15.238445 4.6861435,14.684966 4.7208858,14.203791 4.7599,14.144651 5.0424587,14.144651 c 0.2406744,0 0.3734183,0.115051 0.5497881,0.476514 0.2204662,0.451841 0.2465679,0.466643 0.5041612,0.285963 0.5975654,-0.419153 1.2041131,-0.256387 2.8245698,0.757969 0.8334047,0.521678 1.7294462,1.149874 1.9912042,1.395995 0.406907,0.382581 0.475617,0.526108 0.473833,0.989688 -0.0067,1.742118 -2.2270752,2.931298 -3.9956667,2.139978 z M 22.231162,16.362171 c -0.353415,-0.136168 -0.803344,-0.415644 -0.999833,-0.62102 -0.546575,-0.571323 -0.478891,-1.200565 0.317944,-2.955829 0.927493,-2.043067 1.059608,-2.232995 1.667305,-2.396863 l 0.515647,-0.13905 -0.06982,-0.6775036 c -0.0633,-0.6141776 -0.04455,-0.6841213 0.200636,-0.7483273 0.347605,-0.091032 0.629613,0.1688575 0.916633,0.8447453 0.125295,0.2950136 0.475369,1.0522896 0.777963,1.6828356 0.955796,1.991694 0.895034,3.331699 -0.19921,4.393385 -0.906696,0.879738 -1.925038,1.08086 -3.12726,0.617627 z M 10.56695,13.759163 C 9.0020626,13.161273 8.3598355,11.260114 9.087154,9.3785933 9.2649989,8.9185261 9.3573913,8.3927942 9.3574352,7.840646 c 8.36e-5,-1.1170218 0.185273,-1.6394265 0.5811655,-1.6394265 0.2261743,0 0.3223873,0.088146 0.3815003,0.3495115 0.267556,1.1829917 0.216074,1.1153576 0.818387,1.0752001 1.03178,-0.06879 1.493814,0.3460748 1.714437,1.5393808 0.04939,0.267159 0.281759,0.7532961 0.516355,1.0803081 0.940821,1.311401 1.077162,1.960191 0.5637,2.682327 -0.597812,0.840745 -2.264108,1.252237 -3.36603,0.831216 z m 5.190016,-1.444056 c -0.700585,-0.318654 -0.942208,-0.853396 -0.942208,-2.085212 0,-0.7489624 -0.06771,-1.0988031 -0.316054,-1.6330262 C 14.324889,8.2229437 14.182108,7.8010432 14.18142,7.6593166 14.179411,7.2595395 14.543526,6.8337598 15.084962,6.6025028 L 15.578118,6.3918634 15.259899,5.7939832 C 15.084868,5.4651502 14.941666,5.1138158 14.941666,5.013237 c 0,-0.1611695 0.251611,-0.337156 0.482058,-0.337156 0.0443,0 0.601907,0.5290331 1.239132,1.1756286 0.637216,0.6465945 1.41985,1.4115832 1.739176,1.6999702 0.768857,0.6943948 1.235411,1.6250984 1.235411,2.4644732 0,0.782755 -0.203884,1.206373 -0.871193,1.810109 -0.819488,0.741417 -2.023832,0.937056 -3.009284,0.488845 z"
       style="opacity:1;fill:#000000;stroke-width:1.0046;stop-opacity:1" />
  </g>
  <path
     inkscape:connector-curvature="0"
     style="opacity:1;fill:#ffb62d;fill-opacity:1;fill-rule:evenodd;stroke:#ce8800;stroke-width:1;stroke-linecap:butt;stroke-linejoin:round;stroke-miterlimit:4;stroke-dasharray:none;stroke-opacity:1;stop-opacity:1"
     d="m 21.374985,13.499963 -0.375005,3.000005 -1.681642,0.697269 -2.387698,-1.857426 -1.590824,1.590825 1.857425,2.387702 -0.697266,1.681642 -3.000005,0.374998 v 2.250006 l 3.000005,0.375002 0.697266,1.681644 -1.857427,2.3877 1.590826,1.590823 2.387698,-1.857427 1.681642,0.697268 L 21.374985,31.5 h 2.249999 l 0.375003,-3.000006 1.681644,-0.697268 2.387701,1.857427 1.590826,-1.590823 -1.857429,-2.387699 0.697271,-1.681645 3,-0.375002 v -2.250006 l -3,-0.374998 -0.697271,-1.681642 1.857429,-2.387702 -1.590826,-1.590825 -2.387701,1.857426 -1.681644,-0.697269 -0.375003,-3.000005 z m 1.124999,6.000015 a 3.0000057,3.0000057 0 0 1 3.000005,3.000006 3.0000057,3.0000057 0 0 1 -3.000005,3.000004 3.0000057,3.0000057 0 0 1 -3.000004,-3.000004 3.0000057,3.0000057 0 0 1 3.000004,-3.000006 z"
     id="path922" />
</svg>
