<?xml version="1.0" encoding="UTF-8" standalone="no"?>
<svg
   xmlns:dc="http://purl.org/dc/elements/1.1/"
   xmlns:cc="http://creativecommons.org/ns#"
   xmlns:rdf="http://www.w3.org/1999/02/22-rdf-syntax-ns#"
   xmlns:svg="http://www.w3.org/2000/svg"
   xmlns="http://www.w3.org/2000/svg"
   xmlns:xlink="http://www.w3.org/1999/xlink"
   xmlns:sodipodi="http://sodipodi.sourceforge.net/DTD/sodipodi-0.dtd"
   xmlns:inkscape="http://www.inkscape.org/namespaces/inkscape"
   version="1.1"
   id="svg2"
   viewBox="0 0 16 16"
   height="16"
   width="16"
   sodipodi:docname="laz_paw_64-16.svg"
   inkscape:version="1.0alpha2 (4ce689b, 2019-06-24)"
   inkscape:export-filename="laz_paw_64-16.png"
   inkscape:export-xdpi="96"
   inkscape:export-ydpi="96">
  <sodipodi:namedview
     pagecolor="#ffffff"
     bordercolor="#666666"
     borderopacity="1"
     objecttolerance="10"
     gridtolerance="10"
     guidetolerance="10"
     inkscape:pageopacity="0"
     inkscape:pageshadow="2"
     inkscape:window-width="1920"
     inkscape:window-height="1137"
     id="namedview37"
     showgrid="true"
     inkscape:zoom="39.995607"
     inkscape:cx="8.0211346"
     inkscape:cy="7.879193"
     inkscape:window-x="-8"
     inkscape:window-y="-8"
     inkscape:window-maximized="1"
     inkscape:current-layer="svg2"
     inkscape:snap-global="true"
     inkscape:snap-bbox="true"
     inkscape:bbox-paths="true"
     inkscape:bbox-nodes="true"
     inkscape:snap-bbox-edge-midpoints="true"
     inkscape:snap-bbox-midpoints="true"
     inkscape:object-paths="true"
     inkscape:snap-intersection-paths="true"
     inkscape:snap-smooth-nodes="true"
     inkscape:snap-midpoints="true"
     inkscape:snap-object-midpoints="true"
     inkscape:snap-center="true"
     inkscape:snap-page="true"
     showguides="true"
     inkscape:guide-bbox="true"
     inkscape:document-rotation="0">
    <inkscape:grid
       type="xygrid"
       id="grid931"
       spacingx="0.5"
       spacingy="0.5"
       empspacing="2" />
  </sodipodi:namedview>
  <defs
     id="defs4">
    <linearGradient
       inkscape:collect="always"
       id="linearGradient880">
      <stop
         style="stop-color:#e4e6f2;stop-opacity:1"
         offset="0"
         id="stop876" />
      <stop
         id="stop881"
         offset="0.3797344"
         style="stop-color:#667fb5;stop-opacity:1;" />
      <stop
         id="stop884"
         offset="0.46363637"
         style="stop-color:#5470ac;stop-opacity:1" />
      <stop
         style="stop-color:#47d2f9;stop-opacity:1"
         offset="1"
         id="stop878" />
    </linearGradient>
    <linearGradient
       gradientTransform="matrix(0.95614034,0,0,0.95614034,-323.17433,-186.01292)"
       inkscape:collect="always"
       xlink:href="#linearGradient880"
       id="linearGradient882"
       x1="128"
       y1="14"
       x2="128"
       y2="242"
       gradientUnits="userSpaceOnUse" />
    <filter
       height="1.036"
       y="-0.018"
       width="1.036"
       x="-0.018"
       id="filter965"
       style="color-interpolation-filters:sRGB"
       inkscape:collect="always">
      <feGaussianBlur
         id="feGaussianBlur967"
         stdDeviation="1.785"
         inkscape:collect="always" />
    </filter>
    <filter
       inkscape:collect="always"
       style="color-interpolation-filters:sRGB"
       id="filter923"
       x="-0.036"
       width="1.072"
       y="-0.036"
       height="1.072">
      <feGaussianBlur
         inkscape:collect="always"
         stdDeviation="3.27"
         id="feGaussianBlur925" />
    </filter>
  </defs>
  <metadata
     id="metadata7">
    <rdf:RDF>
      <cc:Work
         rdf:about="">
        <dc:format>image/svg+xml</dc:format>
        <dc:type
           rdf:resource="http://purl.org/dc/dcmitype/StillImage" />
        <dc:title />
      </cc:Work>
    </rdf:RDF>
  </metadata>
  <g
     id="g4735">
    <ellipse
       cy="7.6466098"
       cx="7.750062"
       id="path917"
       style="opacity:1;fill:#20345e;fill-opacity:1;stroke:none;stroke-width:0.5;stroke-linejoin:round;stroke-opacity:0.976471;stop-opacity:1"
       rx="7.6239777"
       ry="7.6466093" />
    <circle
       style="opacity:0.45;fill:#000000;fill-opacity:1;stroke:none;stroke-width:7.79276;stroke-linejoin:round;stroke-opacity:0.976471;filter:url(#filter965);stop-opacity:1"
       id="circle939"
       cx="-198.47238"
       cy="-55.910957"
       r="119"
       transform="matrix(0.06406704,0,0,0.06425722,20.613979,11.670844)" />
    <ellipse
       cy="7.6466098"
       cx="7.750062"
       id="circle921"
       style="opacity:1;fill:#3371b4;fill-opacity:1;stroke:none;stroke-width:0.478992;stroke-linejoin:round;stroke-opacity:0.976471;stop-opacity:1"
       rx="7.3036427"
       ry="7.3253231" />
    <circle
       style="opacity:1;fill:url(#linearGradient882);fill-opacity:1;stroke:none;stroke-width:7.20341;stroke-linejoin:round;stroke-opacity:0.976471;filter:url(#filter923);stop-opacity:1"
       id="circle919"
       cx="-200.78838"
       cy="-63.626961"
       r="109"
       transform="matrix(0.06406704,0,0,0.06425722,20.613979,11.670844)" />
    <path
       style="opacity:1;fill:#000000;stroke-width:1.0046;stop-opacity:1"
       d="m 7.0821841,12.705421 c -0.6218648,-0.085 -1.0593607,-0.413785 -1.3218248,-0.993369 -0.2201612,-0.48616 -0.1316129,-0.819661 0.3127003,-1.177736 0.3438312,-0.277095 0.46674,-0.5602771 0.46674,-1.0753732 0,-0.2319892 0.030809,-0.5035723 0.06846,-0.6035321 C 6.6900528,8.6382823 6.9486306,8.3554593 7.2185623,8.1878784 7.4657214,8.034436 8.6099017,7.7389781 8.9599871,7.7381993 c 0.5432014,-0.00121 1.0480029,0.2898335 1.3777919,0.7943709 0.245443,0.3754961 0.49191,0.5354927 0.96343,0.6254207 0.55529,0.1059074 0.746155,0.2300954 0.898106,0.5843558 0.220081,0.5131113 0.137749,1.1473193 -0.201014,1.5485003 -0.494509,0.585608 -2.5919864,1.273195 -4.3964711,1.441229 -0.1061994,0.0099 -0.3400416,-0.0021 -0.5196458,-0.02665 z M 3.6111722,10.001707 C 3.3371113,9.8788971 2.8793927,9.4228424 2.7230556,9.1168161 2.5421745,8.7627576 2.2194221,7.4862339 2.2397012,7.2051002 2.2573216,6.9606927 2.277108,6.9306531 2.4204113,6.9306531 c 0.1220605,0 0.1893834,0.058439 0.2788313,0.2420403 0.1118123,0.2295075 0.1250498,0.2370262 0.2556915,0.1452515 0.3030627,-0.2129041 0.6106806,-0.1302288 1.4325153,0.3850023 0.4226714,0.2649807 0.8771092,0.584066 1.0098631,0.7090803 0.2063677,0.194328 0.241215,0.267231 0.2403104,0.5027016 -0.0034,0.88489 -1.1294885,1.4889209 -2.0264507,1.0869779 z M 11.137871,8.0570186 C 10.958633,7.9878534 10.730446,7.8458964 10.630794,7.741578 10.353592,7.4513808 10.387918,7.1317641 10.792043,6.2401965 11.262432,5.202443 11.329436,5.1059711 11.637637,5.0227361 l 0.261517,-0.070629 -0.03541,-0.3441308 c -0.0321,-0.3119649 -0.02259,-0.3474921 0.101755,-0.3801046 0.176292,-0.046239 0.319316,0.085769 0.464882,0.4290795 0.06354,0.1498485 0.241089,0.5344987 0.394553,0.8547779 0.484744,1.0116592 0.453927,1.6923006 -0.101032,2.2315722 -0.459841,0.4468538 -0.976306,0.5490112 -1.586028,0.3137173 z M 5.2222244,6.7348485 C 4.4285721,6.4311567 4.1028591,5.4654838 4.4717277,4.5097855 4.5619238,4.2760993 4.6087818,4.0090598 4.6088042,3.7286021 c 4.23e-5,-0.567379 0.093963,-0.8327292 0.2947449,-0.8327292 0.114707,0 0.1635023,0.044773 0.1934825,0.1775311 0.1356946,0.6008873 0.1095848,0.5665334 0.4150545,0.5461356 0.5232803,-0.034941 0.7576062,0.1757853 0.869498,0.7819121 C 6.4066349,4.537152 6.5244818,4.7840803 6.64346,4.9501826 7.1206089,5.6162943 7.1897558,5.9458406 6.929347,6.3126413 6.6261594,6.739689 5.7810773,6.9487017 5.2222244,6.7348485 Z M 7.854404,6.0013562 C 7.4990939,5.839499 7.3765516,5.5678831 7.3765516,4.9421955 7.3765516,4.5617677 7.3422111,4.3840701 7.216261,4.112717 7.1281086,3.9227862 7.0556956,3.7084864 7.0553464,3.6364978 7.0543277,3.4334353 7.2389933,3.2171654 7.5135891,3.0997007 L 7.7636991,2.9927085 7.6023104,2.6890218 C 7.5135411,2.5219948 7.4409147,2.3435384 7.4409147,2.2924501 c 0,-0.081864 0.1276074,-0.1712545 0.2444817,-0.1712545 0.022465,0 0.3052641,0.2687166 0.6284406,0.5971481 0.3231721,0.3284302 0.7200944,0.7169981 0.8820443,0.8634808 0.3899351,0.3527105 0.6265539,0.8254515 0.6265539,1.2518033 0,0.3975915 -0.1034023,0.6127636 -0.4418365,0.919425 C 8.9649856,6.1296471 8.3541877,6.2290202 7.854404,6.0013562 Z"
       id="path837"
       inkscape:connector-curvature="0"
       sodipodi:nodetypes="cssscscssscccsscsccsccsccssccsccccssssssccsscscccccssssscc" />
  </g>
  <g
     id="g4728">
    <rect
       y="8.5"
       x="6.5"
       height="6.999999"
       width="9"
       id="rect849"
       style="opacity:1;fill:#ffffff;fill-opacity:1;stroke:#000080;stroke-width:1;stroke-linecap:butt;stroke-linejoin:round;stroke-miterlimit:4;stroke-dasharray:none;stroke-opacity:1;paint-order:normal;stop-opacity:1" />
    <path
       style="font-style:normal;font-weight:normal;font-size:5.33333px;line-height:1.25;font-family:sans-serif;letter-spacing:0px;word-spacing:0px;opacity:1;fill:#000000;fill-opacity:1;stroke:none;stroke-width:1.06018;stop-opacity:1"
       d="m 13.113063,10.347191 -1.328125,2.332858 h 1.328125 z M 12.975042,9.83203 h 0.661459 v 2.848019 h 0.554687 v 0.491744 h -0.554687 v 1.030322 h -0.523438 v -1.030322 h -1.755208 v -0.570774 z"
       id="path861"
       inkscape:connector-curvature="0" />
    <path
       style="font-style:normal;font-weight:normal;font-size:5.33333px;line-height:1.25;font-family:sans-serif;letter-spacing:0px;word-spacing:0px;opacity:1;fill:#000000;fill-opacity:1;stroke:none;stroke-width:1.06018;stop-opacity:1"
       d="m 9.4620205,11.781445 q -0.3541663,0 -0.5624997,0.272216 -0.2057291,0.272215 -0.2057291,0.746397 0,0.471256 0.2057291,0.746399 0.2083334,0.272215 0.5624997,0.272215 0.354167,0 0.5598965,-0.272215 0.208334,-0.275143 0.208334,-0.746399 0,-0.474182 -0.208334,-0.746397 Q 9.8161875,11.781445 9.4620205,11.781445 Z M 10.506292,9.9286227 V 10.4672 q -0.197916,-0.105374 -0.401041,-0.160988 -0.2005215,-0.05561 -0.3984385,-0.05561 -0.5208333,0 -0.796875,0.395152 -0.2734375,0.395152 -0.3125,1.194236 0.1536458,-0.254653 0.3854167,-0.389298 0.2317708,-0.137571 0.5104163,-0.137571 0.5859385,0 0.9244795,0.401006 0.341145,0.398079 0.341145,1.085935 0,0.673221 -0.354166,1.080082 Q 10.050562,14.287 9.4620205,14.287 8.7875417,14.287 8.4307708,13.707444 8.074,13.124961 8.074,12.021464 q 0,-1.036176 0.4375,-1.650857 0.4375,-0.6176072 1.1744795,-0.6176072 0.197916,0 0.3984365,0.043906 0.203125,0.043906 0.421876,0.1317169 z"
       id="path859"
       inkscape:connector-curvature="0" />
  </g>
</svg>
