<?xml version="1.0" encoding="UTF-8" standalone="no"?>
<svg
   xmlns:dc="http://purl.org/dc/elements/1.1/"
   xmlns:cc="http://creativecommons.org/ns#"
   xmlns:rdf="http://www.w3.org/1999/02/22-rdf-syntax-ns#"
   xmlns:svg="http://www.w3.org/2000/svg"
   xmlns="http://www.w3.org/2000/svg"
   xmlns:xlink="http://www.w3.org/1999/xlink"
   xmlns:sodipodi="http://sodipodi.sourceforge.net/DTD/sodipodi-0.dtd"
   xmlns:inkscape="http://www.inkscape.org/namespaces/inkscape"
   version="1.1"
   id="svg2"
   viewBox="0 0 48 48"
   height="48"
   width="48"
   sodipodi:docname="laz_paw_list-48.svg"
   inkscape:version="1.0alpha2 (4ce689b, 2019-06-24)"
   inkscape:export-filename="laz_paw_list-48.png"
   inkscape:export-xdpi="96"
   inkscape:export-ydpi="96">
  <sodipodi:namedview
     pagecolor="#ffffff"
     bordercolor="#666666"
     borderopacity="1"
     objecttolerance="10"
     gridtolerance="10"
     guidetolerance="10"
     inkscape:pageopacity="0"
     inkscape:pageshadow="2"
     inkscape:window-width="1920"
     inkscape:window-height="1137"
     id="namedview37"
     showgrid="true"
     inkscape:zoom="13.615604"
     inkscape:cx="11.416797"
     inkscape:cy="27.95171"
     inkscape:window-x="-8"
     inkscape:window-y="-8"
     inkscape:window-maximized="1"
     inkscape:current-layer="g893"
     inkscape:snap-global="false"
     inkscape:snap-bbox="true"
     inkscape:bbox-paths="true"
     inkscape:bbox-nodes="true"
     inkscape:snap-bbox-edge-midpoints="true"
     inkscape:snap-bbox-midpoints="true"
     inkscape:object-paths="true"
     inkscape:snap-intersection-paths="true"
     inkscape:snap-smooth-nodes="true"
     inkscape:snap-midpoints="true"
     inkscape:snap-object-midpoints="true"
     inkscape:snap-center="true"
     inkscape:snap-page="true"
     showguides="true"
     inkscape:guide-bbox="true"
     inkscape:document-rotation="0">
    <inkscape:grid
       type="xygrid"
       id="grid931"
       spacingx="0.5"
       spacingy="0.5"
       empspacing="2" />
  </sodipodi:namedview>
  <defs
     id="defs4">
    <filter
       inkscape:collect="always"
       style="color-interpolation-filters:sRGB"
       id="filter965"
       x="-0.017999999"
       width="1.036"
       y="-0.017999999"
       height="1.036">
      <feGaussianBlur
         inkscape:collect="always"
         stdDeviation="1.785"
         id="feGaussianBlur967" />
    </filter>
    <linearGradient
       gradientUnits="userSpaceOnUse"
       y2="242"
       x2="128"
       y1="14"
       x1="128"
       id="linearGradient882"
       xlink:href="#linearGradient880"
       inkscape:collect="always"
       gradientTransform="matrix(0.95614034,0,0,0.95614034,3.6140399,2.6140399)" />
    <linearGradient
       id="linearGradient880"
       inkscape:collect="always">
      <stop
         id="stop876"
         offset="0"
         style="stop-color:#e4e6f2;stop-opacity:1" />
      <stop
         style="stop-color:#667fb5;stop-opacity:1;"
         offset="0.3797344"
         id="stop881" />
      <stop
         style="stop-color:#5470ac;stop-opacity:1"
         offset="0.46363637"
         id="stop884" />
      <stop
         id="stop878"
         offset="1"
         style="stop-color:#47d2f9;stop-opacity:1" />
    </linearGradient>
    <filter
       height="1.072"
       y="-0.035999998"
       width="1.072"
       x="-0.035999998"
       id="filter923"
       style="color-interpolation-filters:sRGB"
       inkscape:collect="always">
      <feGaussianBlur
         id="feGaussianBlur925"
         stdDeviation="3.27"
         inkscape:collect="always" />
    </filter>
  </defs>
  <metadata
     id="metadata7">
    <rdf:RDF>
      <cc:Work
         rdf:about="">
        <dc:format>image/svg+xml</dc:format>
        <dc:type
           rdf:resource="http://purl.org/dc/dcmitype/StillImage" />
        <dc:title />
      </cc:Work>
    </rdf:RDF>
  </metadata>
  <g
     id="g893"
     transform="translate(-1,-1.335144e-5)">
    <g
       transform="translate(45.653756,8.4155774)"
       id="g1049">
      <g
         id="g929"
         transform="translate(-45.653756,-8.4155773)">
        <g
           id="g921">
          <ellipse
             ry="22.461786"
             rx="22.441624"
             style="opacity:1;fill:#20345e;fill-opacity:1;stroke:none;stroke-width:0.499999;stroke-linejoin:round;stroke-opacity:0.976471;stop-opacity:1"
             id="path917"
             cx="24.962761"
             cy="23.461927" />
          <circle
             transform="matrix(0.18858508,0,0,0.1887545,1.201041,-0.32114)"
             r="119"
             cy="132.716"
             cx="128.31599"
             id="circle939"
             style="opacity:0.45;fill:#000000;fill-opacity:1;stroke:none;stroke-width:2.65013;stroke-linejoin:round;stroke-opacity:0.976471;filter:url(#filter965);stop-opacity:1" />
          <ellipse
             ry="21.518013"
             rx="21.498699"
             style="opacity:1;fill:#3371b4;fill-opacity:1;stroke:none;stroke-width:0.478991;stroke-linejoin:round;stroke-opacity:0.976471;stop-opacity:1"
             id="circle921"
             cx="24.962761"
             cy="23.461927" />
          <circle
             transform="matrix(0.18858508,0,0,0.1887545,1.201041,-0.32114)"
             r="109"
             cy="125"
             cx="126"
             id="circle919"
             style="opacity:1;fill:url(#linearGradient882);fill-opacity:1;stroke:none;stroke-width:2.4497;stroke-linejoin:round;stroke-opacity:0.976471;filter:url(#filter923);stop-opacity:1" />
        </g>
        <path
           style="opacity:1;fill:#000000;stroke-width:1.0046;stop-opacity:1"
           d="m 22.996822,38.322101 c -1.830495,-0.249702 -3.11829,-1.215489 -3.890869,-2.918007 -0.648057,-1.428085 -0.387409,-2.407739 0.920452,-3.459578 1.012087,-0.813962 1.373876,-1.645805 1.373876,-3.158891 0,-0.681464 0.09069,-1.479235 0.201517,-1.772865 0.240763,-0.637811 1.001901,-1.468599 1.796461,-1.960865 0.727528,-0.450735 4.095489,-1.318637 5.125986,-1.320925 1.598945,-0.0036 3.084858,0.851381 4.055611,2.333451 0.722477,1.103014 1.447967,1.573001 2.835914,1.837163 1.634527,0.311101 2.19635,0.675901 2.643627,1.716535 0.64782,1.507256 0.405471,3.370231 -0.591697,4.548693 -1.455617,1.720214 -7.629664,3.739989 -12.94127,4.233586 -0.312604,0.02903 -1.000932,-0.0061 -1.529608,-0.0783 z M 12.779694,30.379987 C 11.972982,30.019234 10.62566,28.679581 10.165472,27.780634 9.6330379,26.740593 8.6829975,22.990826 8.7426909,22.165 c 0.051865,-0.717942 0.1101083,-0.806183 0.5319293,-0.806183 0.3592936,0 0.5574619,0.171663 0.8207578,0.710989 0.329125,0.674174 0.368091,0.696261 0.752643,0.426674 0.892082,-0.625402 1.797574,-0.382545 4.216691,1.130938 1.244158,0.778376 2.581824,1.715684 2.972592,2.082911 0.607456,0.570835 0.710031,0.784987 0.707368,1.476677 -0.01001,2.59935 -3.324715,4.37368 -5.964978,3.192981 z m 22.15528,-5.712491 c -0.527599,-0.203171 -1.19928,-0.620168 -1.492611,-0.926601 -0.815961,-0.852449 -0.714919,-1.791318 0.474646,-4.410283 1.384618,-3.048384 1.581848,-3.331767 2.489055,-3.576269 l 0.769789,-0.207472 -0.104238,-1.010878 c -0.0945,-0.916391 -0.0665,-1.020751 0.299522,-1.116551 0.518926,-0.135826 0.939925,0.251946 1.368405,1.260413 0.187048,0.440179 0.709661,1.570082 1.161392,2.510896 1.426871,2.971732 1.336161,4.971105 -0.297393,6.555206 -1.353571,1.312625 -2.873816,1.612711 -4.668567,0.921539 z M 17.521921,20.783644 c -2.33616,-0.89209 -3.294916,-3.728737 -2.209131,-6.536084 0.265498,-0.686449 0.403427,-1.470874 0.403493,-2.294714 1.25e-4,-1.666667 0.276587,-2.4461273 0.867599,-2.4461273 0.337647,0 0.48128,0.1315196 0.569528,0.5214933 0.399424,1.765098 0.322568,1.664183 1.221737,1.604266 1.540306,-0.10264 2.230058,0.516365 2.559418,2.296852 0.07374,0.398618 0.420628,1.123965 0.770847,1.611888 1.404516,1.956692 1.608054,2.924728 0.841525,4.0022 -0.89245,1.254445 -3.379999,1.868416 -5.025016,1.240226 z m 7.747975,-2.154621 c -1.045875,-0.475453 -1.406586,-1.27332 -1.406586,-3.111267 0,-1.1175 -0.101083,-1.639484 -0.471825,-2.436578 -0.259481,-0.55792 -0.472634,-1.187422 -0.473661,-1.398887 -0.003,-0.596493 0.540575,-1.231782 1.348864,-1.576832 L 25.002901,9.7911713 24.527844,8.8990966 C 24.266546,8.408457 24.052766,7.8842441 24.052766,7.7341742 c 0,-0.2404749 0.37562,-0.5030579 0.719647,-0.5030579 0.06613,0 0.898562,0.7893506 1.849852,1.7541116 0.951275,0.9647596 2.119639,2.1061711 2.596348,2.5364621 1.147797,1.036081 1.844298,2.424749 1.844298,3.677149 0,1.167919 -0.30437,1.799984 -1.300571,2.700797 -1.223382,1.106239 -3.021301,1.398146 -4.492444,0.729387 z"
           id="path837"
           inkscape:connector-curvature="0"
           sodipodi:nodetypes="cssscscssscccsscsccsccsccssccsccccssssssccsscscccccssssscc" />
      </g>
      <g
         id="g915"
         transform="translate(-45.653756,-8.4155773)">
        <rect
           style="opacity:1;fill:#749acc;fill-opacity:1;stroke:none;stroke-width:3.1471;stroke-linecap:butt;stroke-linejoin:round;stroke-miterlimit:4;stroke-dasharray:none;stroke-opacity:1;paint-order:normal;stop-opacity:1"
           id="rect949"
           width="26"
           height="19.999987"
           x="23"
           y="27.000141" />
        <rect
           style="opacity:1;fill:#ffffff;fill-opacity:1;stroke:none;stroke-width:0.214241;stroke-linecap:butt;stroke-linejoin:round;stroke-miterlimit:4;stroke-dasharray:none;stroke-opacity:1;paint-order:normal;stop-opacity:1"
           id="rect951"
           width="10"
           height="14"
           x="25"
           y="31.000126" />
        <rect
           y="31.000126"
           x="37"
           height="14"
           width="10"
           id="rect891"
           style="opacity:1;fill:#ffffff;fill-opacity:1;stroke:none;stroke-width:0.214241;stroke-linecap:butt;stroke-linejoin:round;stroke-miterlimit:4;stroke-dasharray:none;stroke-opacity:1;paint-order:normal;stop-opacity:1" />
        <rect
           y="33.00013"
           x="39"
           height="1"
           width="6"
           id="rect1019"
           style="opacity:1;fill:#808080;fill-opacity:1;stroke:none;stroke-width:1.82009;stroke-linecap:butt;stroke-linejoin:round;stroke-miterlimit:4;stroke-dasharray:none;stroke-opacity:1;paint-order:normal;stop-opacity:1" />
        <rect
           style="opacity:1;fill:#808080;fill-opacity:1;stroke:none;stroke-width:1.82009;stroke-linecap:butt;stroke-linejoin:round;stroke-miterlimit:4;stroke-dasharray:none;stroke-opacity:1;paint-order:normal;stop-opacity:1"
           id="rect1021"
           width="6"
           height="1"
           x="39"
           y="36.00013" />
        <rect
           y="39.00013"
           x="39"
           height="1"
           width="6"
           id="rect1023"
           style="opacity:1;fill:#808080;fill-opacity:1;stroke:none;stroke-width:1.82009;stroke-linecap:butt;stroke-linejoin:round;stroke-miterlimit:4;stroke-dasharray:none;stroke-opacity:1;paint-order:normal;stop-opacity:1" />
        <rect
           style="opacity:1;fill:#808080;fill-opacity:1;stroke:none;stroke-width:1.82009;stroke-linecap:butt;stroke-linejoin:round;stroke-miterlimit:4;stroke-dasharray:none;stroke-opacity:1;paint-order:normal;stop-opacity:1"
           id="rect964"
           width="6"
           height="1"
           x="27"
           y="33.00013" />
        <rect
           y="36.00013"
           x="27"
           height="1"
           width="6"
           id="rect993"
           style="opacity:1;fill:#808080;fill-opacity:1;stroke:none;stroke-width:1.82009;stroke-linecap:butt;stroke-linejoin:round;stroke-miterlimit:4;stroke-dasharray:none;stroke-opacity:1;paint-order:normal;stop-opacity:1" />
        <rect
           style="opacity:1;fill:#808080;fill-opacity:1;stroke:none;stroke-width:1.82009;stroke-linecap:butt;stroke-linejoin:round;stroke-miterlimit:4;stroke-dasharray:none;stroke-opacity:1;paint-order:normal;stop-opacity:1"
           id="rect997"
           width="6"
           height="1"
           x="27"
           y="39.00013" />
        <rect
           y="42.00013"
           x="27"
           height="1"
           width="6"
           id="rect1001"
           style="opacity:1;fill:#808080;fill-opacity:1;stroke:none;stroke-width:1.82009;stroke-linecap:butt;stroke-linejoin:round;stroke-miterlimit:4;stroke-dasharray:none;stroke-opacity:1;paint-order:normal;stop-opacity:1" />
        <rect
           style="opacity:1;fill:#808080;fill-opacity:1;stroke:none;stroke-width:1.82009;stroke-linecap:butt;stroke-linejoin:round;stroke-miterlimit:4;stroke-dasharray:none;stroke-opacity:1;paint-order:normal;stop-opacity:1"
           id="rect1006"
           width="6"
           height="1"
           x="39"
           y="42.00013" />
      </g>
    </g>
  </g>
</svg>
