<?xml version="1.0" encoding="UTF-8" standalone="no"?>
<!-- Created with Inkscape (http://www.inkscape.org/) -->

<svg
   xmlns:dc="http://purl.org/dc/elements/1.1/"
   xmlns:cc="http://creativecommons.org/ns#"
   xmlns:rdf="http://www.w3.org/1999/02/22-rdf-syntax-ns#"
   xmlns:svg="http://www.w3.org/2000/svg"
   xmlns="http://www.w3.org/2000/svg"
   xmlns:xlink="http://www.w3.org/1999/xlink"
   xmlns:sodipodi="http://sodipodi.sourceforge.net/DTD/sodipodi-0.dtd"
   xmlns:inkscape="http://www.inkscape.org/namespaces/inkscape"
   width="40"
   height="40"
   viewBox="0 0 10.583333 10.583334"
   version="1.1"
   id="svg2882"
   inkscape:version="0.92.4 (5da689c313, 2019-01-14)"
   sodipodi:docname="LazarusForm_40.svg"
   inkscape:export-filename="LazarusForm_40.png"
   inkscape:export-xdpi="96"
   inkscape:export-ydpi="96">
  <defs
     id="defs2876">
    <linearGradient
       inkscape:collect="always"
       xlink:href="#linearGradient842"
       id="linearGradient844-2"
       x1="12.5"
       y1="3.5"
       x2="4"
       y2="12"
       gradientUnits="userSpaceOnUse"
       gradientTransform="matrix(0.38484847,0,0,0.335139,-0.8298295,291.67304)" />
    <linearGradient
       id="linearGradient842"
       inkscape:collect="always">
      <stop
         id="stop838"
         offset="0"
         style="stop-color:#d7e3f4;stop-opacity:1" />
      <stop
         id="stop840"
         offset="1"
         style="stop-color:#ffffff;stop-opacity:1" />
    </linearGradient>
  </defs>
  <sodipodi:namedview
     id="base"
     pagecolor="#ffffff"
     bordercolor="#666666"
     borderopacity="1.0"
     inkscape:pageopacity="0.0"
     inkscape:pageshadow="2"
     inkscape:zoom="22.926832"
     inkscape:cx="19.999999"
     inkscape:cy="19.500015"
     inkscape:document-units="px"
     inkscape:current-layer="layer1"
     showgrid="true"
     units="px"
     objecttolerance="10"
     gridtolerance="10"
     guidetolerance="10"
     inkscape:snap-bbox="true"
     inkscape:bbox-paths="true"
     inkscape:bbox-nodes="true"
     inkscape:snap-bbox-edge-midpoints="true"
     inkscape:snap-bbox-midpoints="true"
     inkscape:object-paths="true"
     inkscape:snap-intersection-paths="true"
     inkscape:snap-smooth-nodes="true"
     inkscape:snap-midpoints="true"
     inkscape:snap-object-midpoints="true"
     inkscape:snap-center="true"
     inkscape:snap-page="true"
     inkscape:window-width="1920"
     inkscape:window-height="1137"
     inkscape:window-x="-8"
     inkscape:window-y="-8"
     inkscape:window-maximized="1">
    <inkscape:grid
       type="xygrid"
       id="grid3427"
       spacingx="0.13229167"
       spacingy="0.13229167"
       empspacing="2" />
  </sodipodi:namedview>
  <metadata
     id="metadata2879">
    <rdf:RDF>
      <cc:Work
         rdf:about="">
        <dc:format>image/svg+xml</dc:format>
        <dc:type
           rdf:resource="http://purl.org/dc/dcmitype/StillImage" />
        <dc:title></dc:title>
      </cc:Work>
    </rdf:RDF>
  </metadata>
  <g
     inkscape:label="Ebene 1"
     inkscape:groupmode="layer"
     id="layer1"
     transform="translate(0,-286.41665)">
    <g
       id="g842"
       transform="matrix(2,0,0,2,8.962326e-8,-296.99999)">
      <path
         sodipodi:nodetypes="sccssssss"
         inkscape:connector-curvature="0"
         id="rect845-9"
         d="m 0.5171402,291.84061 h 2.9224299 l 0.9260417,0.92604 1.32e-5,3.76591 c 5e-7,0.18566 -0.1716426,0.33514 -0.3848484,0.33514 H 0.5171402 c -0.2132061,0 -0.3848486,-0.14948 -0.3848486,-0.33514 v -4.35681 c 0,-0.18567 0.1716425,-0.33514 0.3848486,-0.33514 z"
         style="opacity:1;fill:url(#linearGradient844-2);fill-opacity:1;fill-rule:evenodd;stroke:#6f7c91;stroke-width:0.26458329;stroke-linecap:round;stroke-linejoin:round;stroke-miterlimit:4;stroke-dasharray:none;stroke-dashoffset:0;stroke-opacity:1;paint-order:normal" />
      <g
         id="g881">
        <rect
           y="292.89896"
           x="0.66145831"
           height="2.3812387"
           width="2.6458335"
           id="rect839"
           style="opacity:1;fill:#c3c3c3;fill-opacity:1;stroke:#3771c8;stroke-width:0.26458329;stroke-linecap:round;stroke-linejoin:round;stroke-miterlimit:4;stroke-dasharray:none;stroke-dashoffset:0;stroke-opacity:1;paint-order:normal" />
        <rect
           style="opacity:1;fill:#ffffff;fill-opacity:1;fill-rule:evenodd;stroke:none;stroke-width:0.26458329;stroke-linecap:round;stroke-linejoin:round;stroke-miterlimit:4;stroke-dasharray:none;stroke-dashoffset:0;stroke-opacity:0.97647059;paint-order:normal"
           id="rect866"
           width="2.3812501"
           height="1.1906362"
           x="0.79374999"
           y="293.4281" />
        <rect
           y="293.03125"
           x="0.79374999"
           height="0.39686167"
           width="2.3812501"
           id="rect836"
           style="opacity:1;fill:#3771c8;fill-opacity:1;stroke:none;stroke-width:0.26458329;stroke-linecap:round;stroke-linejoin:round;stroke-miterlimit:4;stroke-dasharray:none;stroke-dashoffset:0;stroke-opacity:1;paint-order:normal" />
        <rect
           style="opacity:1;fill:#ff0000;fill-opacity:1;fill-rule:evenodd;stroke:none;stroke-width:0.26458329;stroke-linecap:round;stroke-linejoin:round;stroke-miterlimit:4;stroke-dasharray:none;stroke-dashoffset:0;stroke-opacity:0.97647059;paint-order:normal"
           id="rect862"
           width="0.79375011"
           height="0.26457"
           x="2.3812499"
           y="293.03125" />
      </g>
      <path
         sodipodi:nodetypes="ccc"
         inkscape:connector-curvature="0"
         id="path848-9"
         d="m 3.3072784,291.84061 v 1.05833 h 1.0583334"
         style="fill:#ffffff;fill-rule:evenodd;stroke:#6f7c91;stroke-width:0.26458332px;stroke-linecap:butt;stroke-linejoin:miter;stroke-opacity:1" />
      <g
         transform="matrix(0.31026724,0,0,0.31623413,0.3273906,292.07253)"
         id="g902"
         style="stroke-width:0.79495144">
        <g
           style="fill:#ffffff;stroke-width:1.12729692;stroke-miterlimit:4;stroke-dasharray:none"
           id="g840"
           transform="matrix(0.70518371,0,0,0.70518371,4.9960881,5.3505723)">
          <path
             style="fill:#ffffff;fill-opacity:1;stroke:none;stroke-width:1.12729692;stroke-miterlimit:4;stroke-dasharray:none;stroke-opacity:1"
             d="M 7.7519531,0.18554688 C 6.894266,0.23859565 6.1185805,1.1415003 6.3554684,1.9960938 6.1043867,1.5630713 5.6502826,1.0953473 5.078125,1.0371094 4.1312402,0.86249193 3.2033346,1.6410494 3.1488667,2.5913018 3.1031574,2.846632 2.9863308,4.0923513 3.1875,3.4003906 2.7566952,4.1954835 2.6357305,5.1752424 2.9140625,6.0410156 2.2814774,5.4130489 1.1275278,5.4980104 0.64378369,6.2650761 0.26497254,6.8885821 0.3965619,7.6718086 0.49899126,8.3555014 c 0.0831424,0.4104601 0.26642006,0.632972 0.24997432,0.7840193 0.21157934,1.3309013 1.21142212,2.6313423 2.58433862,2.8673673 0.4163943,0.104164 1.1851127,-0.363246 0.9548824,0.365961 0.2414143,1.664259 1.9235565,2.88562 3.5762437,2.712418 1.8594572,-0.129685 3.7195957,-0.605667 5.3624487,-1.495459 1.368529,-0.843238 1.864728,-2.83023 0.957674,-4.1827043 0.23197,-0.3582617 1.115169,-0.705473 1.200802,-1.4036775 0.412692,-1.1327122 0.23886,-2.4722829 -0.494733,-3.43702 C 15.151126,5.0365054 14.71501,3.8827123 14.590222,3.7270598 14.236335,2.9642491 13.431934,2.2947855 12.547024,2.523932 12.056323,2.4809153 11.616035,3.3592449 11.468143,3.2237477 11.221845,2.6131342 10.389802,1.8149689 10.00527,1.7206675 10.307568,2.0187727 9.6700926,1.1212284 9.4726562,1.0039062 9.046889,0.47341148 8.4548043,0.12255948 7.7519531,0.18554688 Z"
             id="path838"
             inkscape:connector-curvature="0" />
        </g>
        <path
           transform="matrix(0.70518371,0,0,0.70518371,4.9960881,5.3505723)"
           style="fill:#000000;fill-opacity:1;stroke:none;stroke-width:1.12729692;stroke-miterlimit:4;stroke-dasharray:none;stroke-opacity:1"
           d="M 8.2801796,1.6523438 C 8.1074251,1.6083551 8.037992,1.6622047 8.037992,1.84375 c 0,0.1053022 0.042059,0.2216724 0.1132813,0.3164062 0.061675,0.082043 0.1418056,0.2244229 0.1796875,0.3164063 L 8.4012733,2.6425781 8.1395546,2.71875 C 7.5517303,2.8909889 7.4398143,3.2839215 7.7938514,3.9355469 L 7.959867,4.2382812 7.93057,4.7070312 c -0.043449,0.7297805 0.1033392,1.0813684 0.5351562,1.2910157 0.2084396,0.1012036 0.2767985,0.1098794 0.6855469,0.09375 0.5516957,-0.021769 0.7890886,-0.1153262 1.1015629,-0.4335938 0.321993,-0.3279653 0.396484,-0.51147 0.396484,-0.9804687 0,-0.3427385 -0.017,-0.4306248 -0.140625,-0.6953125 C 10.329569,3.5988927 9.9067556,3.1376565 9.5301796,2.9140625 9.3098034,2.7832102 9.215524,2.6937381 9.131742,2.5332031 9.0010302,2.2827389 8.4286939,1.6901617 8.2801796,1.6523438 Z M 4.3946967,2.5234375 c -0.08572,0.1081027 -0.1518313,0.5635821 -0.1445313,1.0019531 0.0061,0.3658592 -0.00853,0.462868 -0.085937,0.5976563 C 3.9867992,4.432008 3.9183061,4.7904656 3.9376654,5.2929688 3.952266,5.6719983 3.9770853,5.808352 4.0724311,6.0175781 4.2723085,6.4561958 4.6017059,6.7213411 5.1212592,6.8632812 5.4896502,6.9639291 5.7907342,6.95099 6.1486029,6.8164062 6.5090877,6.6808395 6.8189789,6.4346931 6.9103217,6.2128906 6.9965316,6.0035522 6.9856022,5.6571178 6.8868842,5.4375 6.8413148,5.3361299 6.7063921,5.1393884 6.5880561,5 6.3077566,4.669832 6.2184054,4.4804564 6.1876654,4.1640625 6.1560588,3.8387794 6.0114213,3.5486583 5.8224311,3.4277344 5.7031101,3.3513844 5.6246251,3.3383967 5.3829779,3.3554688 5.2206152,3.3669378 5.0542713,3.389338 5.0138373,3.40625 4.9194265,3.4457428 4.7911811,3.1421384 4.7911811,2.8769531 4.7911811,2.7751999 4.7592564,2.64059 4.7189154,2.578125 4.6399578,2.455859 4.4704827,2.4278655 4.3946967,2.5234375 Z m 8.5154593,1.4160156 c -0.08061,0 -0.205078,0.1781877 -0.205078,0.2929688 0,0.047983 0.03437,0.183331 0.07617,0.3027343 0.102002,0.2913838 0.06562,0.3710938 -0.167969,0.3710938 -0.360164,0 -0.608699,0.2303018 -0.773437,0.71875 -0.05047,0.1496458 -0.224124,0.541632 -0.386719,0.8710938 -0.355903,0.7211661 -0.398549,0.9530279 -0.238281,1.2675781 0.133787,0.2625733 0.417987,0.4801657 0.777344,0.5957031 0.363155,0.116763 0.676816,0.1174235 1.039062,0.00391 C 13.743806,8.139992 14.093189,7.6845482 14.144529,6.9121132 14.178617,6.3993127 14.016848,5.828018 13.722656,5.4296875 13.663745,5.3499134 13.593296,5.1854742 13.566406,5.0625 13.468001,4.6125535 13.075109,3.9394531 12.910156,3.9394531 Z m -11.0605466,3.1328125 0.00195,0.3574219 c 5.738e-4,0.3789051 0.068712,0.7186765 0.1992187,0.9746094 0.04373,0.085756 0.096984,0.2717271 0.1171876,0.4140625 0.1104056,0.7777713 0.6108267,1.4658516 1.2636718,1.7382816 0.3417174,0.142596 0.830244,0.148188 1.2636719,0.01367 0.2550121,-0.07915 0.352259,-0.139497 0.5390625,-0.333984 C 5.6160577,9.8389637 5.7392978,9.4518548 5.6015625,9.0859375 5.4972112,8.8087214 5.3190091,8.6515989 4.6660156,8.2675781 4.3537764,8.0839524 3.9959898,7.8561576 3.8710938,7.7617188 3.3335975,7.3552915 2.9311292,7.307439 2.5820312,7.6054688 L 2.4492188,7.71875 2.3691406,7.5 C 2.2639489,7.2102496 2.1382944,7.0722656 1.9785156,7.0722656 Z M 10.041016,8.1328125 C 9.6168856,7.9999043 9.2204219,8.0130207 8.5136719,8.1816406 7.5671022,8.4074734 7.1368053,8.6570388 6.8554688,9.1425781 6.7408059,9.3404474 6.7314045,9.3900748 6.7285156,9.9296875 c -0.00264,0.4910585 -0.016436,0.6028165 -0.097656,0.7617185 -0.090685,0.177429 -0.3581144,0.451296 -0.6230469,0.636719 -0.4644448,0.325065 -0.3788365,1.125949 0.1875,1.740234 0.2445541,0.265261 0.5300627,0.427523 0.9121094,0.521485 0.3449914,0.0848 0.5100985,0.08515 1.2363281,0 1.1185277,-0.131147 2.2531958,-0.420217 3.2695308,-0.833985 0.749659,-0.305204 0.926835,-0.409581 1.175781,-0.683593 0.30129,-0.331626 0.413462,-0.618285 0.414063,-1.0625 5.4e-4,-0.452043 -0.08519,-0.76908 -0.273437,-1 C 12.735812,9.7719317 12.595667,9.708259 12.144531,9.65625 11.540618,9.586627 11.195225,9.3807033 10.972656,8.9570312 10.764537,8.5608713 10.413128,8.2494232 10.041016,8.1328125 Z"
           id="path834"
           inkscape:connector-curvature="0"
           sodipodi:nodetypes="csccccccccccscccccccccccsccccccsccsscsccccccccsccccccccsccccscccccccccscsccccc" />
      </g>
    </g>
  </g>
</svg>
